<svg xmlns="http://www.w3.org/2000/svg" width="300" viewBox="0 0 300 300" height="300" version="1.0"><path fill="#E8E3F4" d="M 260.738281 234.46875 C 260.738281 234.46875 258.691406 183.566406 244.648438 149.046875 C 232.710938 119.699219 222.890625 113.824219 220.214844 112.722656 L 220.269531 112.1875 L 191.039062 102.195312 L 169.175781 88.648438 C 150.132812 97.652344 131.105469 98.921875 112.101562 92.367188 L 94.917969 104.875 L 74.800781 112.789062 C 72.609375 113.652344 70.796875 115.101562 69.476562 116.890625 L 69.417969 116.578125 C 49.53125 143.09375 39.214844 175.570312 40.15625 208.703125 L 41.335938 250.265625 C 41.335938 250.265625 56.945312 282.539062 70.480469 284.402344 L 66.980469 304.484375 L 102.402344 304.238281 L 102.398438 304.5 L 163.585938 304.5 L 233.921875 305.261719 L 223.796875 263.257812 C 252.171875 257.355469 260.738281 234.46875 260.738281 234.46875 Z M 117.25 83.390625 C 115.394531 78.261719 114.195312 69.796875 114.453125 64.496094 C 114.453125 64.496094 127.023438 56.835938 132.621094 57.871094 C 144.9375 60.148438 153.304688 63.039062 155.578125 63.515625 C 158.0625 59.25 163.128906 53.625 166.34375 51.550781 C 166.714844 51.3125 167.207031 51.417969 167.445312 51.789062 C 167.6875 52.160156 167.578125 52.652344 167.207031 52.890625 C 164.449219 54.675781 158.925781 63.59375 156.085938 68.488281 C 156.691406 70.429688 158.992188 71.789062 158.015625 76.59375 C 161.804688 71.910156 162.484375 70.386719 162.511719 70.324219 C 162.667969 69.914062 163.132812 69.710938 163.546875 69.871094 C 163.953125 70.035156 164.15625 70.5 163.996094 70.90625 C 163.863281 71.242188 161.171875 77.964844 155.582031 83.53125 C 154.261719 86.351562 151.992188 89.058594 148.226562 91.171875 C 138.476562 96.644531 122.191406 97.039062 117.25 83.390625"/><path fill="#15253D" d="M 244.054688 226.113281 C 235.515625 217.265625 223.777344 214.492188 218.867188 213.6875 C 221.476562 211.546875 232.085938 203.425781 241.179688 205.21875 C 241.613281 205.300781 242.03125 205.023438 242.117188 204.589844 C 242.203125 204.15625 241.921875 203.734375 241.488281 203.652344 C 230.304688 201.457031 217.734375 212.535156 217.207031 213.003906 C 217.078125 213.121094 216.992188 213.269531 216.957031 213.425781 C 216.765625 213.40625 216.640625 213.394531 216.589844 213.386719 L 211.402344 213.226562 C 211.488281 213.085938 211.527344 212.917969 211.507812 212.742188 C 211.472656 212.378906 207.828125 176.40625 209.167969 163.957031 C 209.214844 163.515625 208.898438 163.121094 208.460938 163.074219 C 208.027344 163.027344 207.628906 163.34375 207.582031 163.785156 C 206.222656 176.398438 209.769531 211.417969 209.921875 212.902344 C 209.933594 213.003906 209.960938 213.097656 210.003906 213.183594 L 172.710938 212.023438 C 172.253906 212.003906 171.902344 212.355469 171.886719 212.796875 C 171.875 213.234375 172.222656 213.605469 172.660156 213.621094 L 216.5 214.984375 C 216.65625 214.996094 232.519531 216.460938 242.90625 227.222656 C 243.0625 227.382812 243.273438 227.46875 243.480469 227.46875 C 243.679688 227.46875 243.878906 227.394531 244.03125 227.242188 C 244.351562 226.9375 244.359375 226.429688 244.054688 226.113281 Z M 186.019531 161.066406 C 186.019531 160.847656 185.839844 160.667969 185.617188 160.667969 L 178.085938 160.667969 C 177.863281 160.667969 177.683594 160.847656 177.683594 161.066406 C 177.683594 161.289062 177.863281 161.464844 178.085938 161.464844 L 185.617188 161.464844 C 185.839844 161.464844 186.019531 161.289062 186.019531 161.066406 Z M 167.445312 51.789062 C 167.207031 51.417969 166.765625 51.414062 166.34375 51.550781 C 162.890625 52.675781 157.40625 63.058594 154.921875 67.324219 C 152.648438 66.847656 145.605469 65.40625 133.289062 63.128906 C 127.691406 62.09375 114.453125 64.496094 114.453125 64.496094 C 114.195312 69.796875 115.394531 78.261719 117.25 83.390625 C 122.191406 97.039062 138.476562 96.644531 148.226562 91.171875 C 151.992188 89.058594 154.261719 86.351562 155.582031 83.53125 C 161.171875 77.964844 163.863281 71.242188 163.996094 70.90625 C 164.15625 70.5 163.953125 70.035156 163.546875 69.871094 C 163.132812 69.710938 162.667969 69.914062 162.511719 70.324219 C 162.484375 70.386719 162.191406 72.167969 158.402344 76.851562 C 159.378906 72.046875 157.914062 70.453125 157.3125 68.515625 C 160.144531 63.621094 164.449219 54.675781 167.207031 52.890625 C 167.578125 52.652344 167.6875 52.160156 167.445312 51.789062 Z M 134.238281 182.605469 C 134.058594 182.902344 133.671875 183.003906 133.371094 182.832031 L 132.863281 182.542969 L 126.652344 192.914062 L 131.15625 193.582031 L 143.28125 173.949219 C 143.65625 173.339844 143.484375 172.539062 142.886719 172.140625 L 141.335938 171.109375 C 140.902344 170.820312 140.367188 170.824219 139.949219 171.0625 L 140.4375 171.382812 C 140.726562 171.578125 140.808594 171.96875 140.625 172.265625 M 190.992188 102.179688 L 170.636719 95.222656 L 169.429688 102.304688 L 162.347656 143.902344 C 160.273438 156.082031 159.355469 168.429688 159.609375 180.78125 L 162.148438 304.09375 L 123.539062 304.09375 L 126.125 210.191406 L 115.433594 208.738281 C 115 208.675781 114.691406 208.273438 114.753906 207.839844 C 114.8125 207.402344 115.214844 207.101562 115.652344 207.152344 L 126.171875 208.585938 L 126.371094 201.417969 L 117.261719 199.859375 C 116.828125 199.785156 116.535156 199.371094 116.609375 198.9375 C 116.683594 198.503906 117.09375 198.210938 117.53125 198.285156 L 126.414062 199.804688 L 126.855469 183.703125 C 127.246094 169.625 125.890625 155.554688 122.828125 141.804688 L 116.316406 112.59375 L 113.007812 97.753906 L 104.480469 101.109375 C 103.726562 101.199219 102.925781 101.449219 102.0625 101.882812 C 101.648438 102.089844 101.246094 102.316406 100.84375 102.542969 L 95.585938 104.609375 C 93.945312 104.886719 92.261719 104.863281 90.601562 104.539062 C 85.386719 103.527344 80.695312 99.757812 79.117188 94.601562 C 77.425781 89.09375 79.253906 82.828125 83.191406 78.722656 C 85.855469 75.949219 91.082031 75.050781 91.96875 70.875 C 92.746094 67.21875 88.773438 63.128906 88.101562 59.570312 C 86.871094 53.039062 92.722656 50.328125 96.363281 46.15625 C 99.566406 42.488281 99.070312 37.523438 99.589844 33.007812 C 99.929688 30.019531 100.703125 27.164062 101.992188 24.441406 C 107.492188 12.816406 120.429688 6.867188 132.503906 10 C 140.550781 6.398438 149.648438 5.234375 158.03125 7.71875 C 164.769531 9.714844 171.007812 13.878906 174.839844 19.839844 C 177.027344 23.234375 177.828125 26.972656 178.941406 30.796875 C 180.398438 35.820312 183.703125 37.53125 186.890625 41.175781 C 191.726562 46.699219 188.089844 52.222656 187.542969 58.464844 C 186.964844 65.0625 194.839844 69.324219 193.300781 76.023438 C 192.28125 80.445312 184.882812 84.136719 190.03125 88.734375 C 192.007812 90.503906 193.609375 91.207031 194 94.140625 C 194.421875 97.296875 193.019531 99.933594 190.992188 102.179688 Z M 223.316406 262.34375 C 205.179688 264.085938 187.765625 260.761719 184.660156 260.121094 L 181.265625 245.40625 C 181.164062 244.976562 180.730469 244.707031 180.308594 244.808594 C 179.878906 244.90625 179.609375 245.335938 179.710938 245.765625 L 183.21875 260.976562 C 183.289062 261.277344 183.523438 261.511719 183.820312 261.574219 C 183.980469 261.613281 196.796875 264.4375 212.445312 264.4375 C 216.011719 264.4375 219.726562 264.292969 223.46875 263.933594 C 223.90625 263.890625 224.230469 263.5 224.1875 263.058594 C 224.144531 262.625 223.765625 262.292969 223.316406 262.34375 Z M 179.726562 163.179688 C 179.503906 163.179688 179.328125 163.359375 179.328125 163.578125 C 179.328125 163.796875 179.503906 163.976562 179.726562 163.976562 L 183.976562 163.976562 C 184.199219 163.976562 184.375 163.796875 184.375 163.578125 C 184.375 163.359375 184.199219 163.179688 183.976562 163.179688 Z M 180.121094 141.113281 L 180.121094 145.273438 L 183.582031 145.273438 L 183.582031 141.113281 Z M 71.128906 225.394531 C 71.355469 225.097656 71.34375 224.683594 71.101562 224.394531 C 65.328125 217.628906 51.152344 214.882812 50.554688 214.769531 C 50.117188 214.6875 49.703125 214.972656 49.621094 215.402344 C 49.539062 215.835938 49.824219 216.253906 50.257812 216.335938 C 50.378906 216.359375 60.652344 218.351562 67.019531 222.871094 C 63.886719 222.050781 59.296875 221.441406 55.105469 223.140625 C 51.542969 224.585938 48.921875 227.449219 47.320312 231.648438 C 47.160156 232.058594 47.367188 232.523438 47.78125 232.679688 C 47.871094 232.714844 47.96875 232.734375 48.0625 232.734375 C 48.386719 232.734375 48.6875 232.535156 48.808594 232.21875 C 50.246094 228.453125 52.566406 225.894531 55.699219 224.621094 C 62.164062 222 70.078125 225.597656 70.15625 225.636719 C 70.496094 225.792969 70.902344 225.695312 71.128906 225.394531 Z M 122.105469 231.183594 L 90.121094 242.394531 C 89.703125 242.542969 89.488281 242.996094 89.632812 243.414062 C 89.746094 243.738281 90.054688 243.945312 90.382812 243.945312 C 90.472656 243.945312 90.5625 243.933594 90.648438 243.898438 L 122.632812 232.6875 C 123.050781 232.542969 123.269531 232.085938 123.125 231.671875 C 122.976562 231.253906 122.519531 231.03125 122.105469 231.183594 Z M 77.683594 253.972656 C 77.253906 253.878906 76.828125 254.148438 76.734375 254.578125 L 70.636719 282.246094 C 70.589844 282.238281 70.542969 282.230469 70.492188 282.230469 C 69.917969 282.230469 69.402344 281.988281 68.921875 281.488281 C 68.023438 280.554688 67.371094 278.886719 66.894531 276.878906 C 67.042969 277.027344 67.203125 277.15625 67.371094 277.25 C 71.996094 279.785156 76.429688 252.136719 76.429688 252.136719 L 64.253906 250.859375 C 64.253906 250.859375 63.835938 257.449219 64.113281 264.070312 C 64.113281 269 64.515625 279.199219 67.769531 282.589844 C 68.503906 283.355469 69.351562 283.769531 70.289062 283.824219 L 68.738281 290.855469 C 68.644531 291.285156 68.914062 291.710938 69.34375 291.804688 C 69.402344 291.820312 69.460938 291.824219 69.515625 291.824219 C 69.882812 291.824219 70.214844 291.570312 70.296875 291.199219 L 78.292969 254.921875 C 78.386719 254.492188 78.113281 254.070312 77.683594 253.972656 Z M 209.871094 148.476562 C 209.890625 148.480469 209.914062 148.480469 209.9375 148.480469 C 210.347656 148.480469 210.699219 148.164062 210.730469 147.746094 C 212.445312 126.597656 221.03125 114.332031 221.117188 114.210938 C 221.371094 113.851562 221.289062 113.355469 220.929688 113.097656 C 220.570312 112.84375 220.074219 112.925781 219.816406 113.285156 C 219.453125 113.792969 210.894531 126 209.140625 147.621094 C 209.105469 148.058594 209.433594 148.445312 209.871094 148.476562 Z M 69.144531 118.753906 C 68.734375 118.90625 68.519531 119.363281 68.667969 119.777344 C 68.734375 119.949219 75.117188 137.539062 78.578125 162.613281 C 78.628906 163.015625 78.972656 163.300781 79.367188 163.300781 C 79.402344 163.300781 79.4375 163.300781 79.476562 163.296875 C 79.914062 163.234375 80.21875 162.832031 80.15625 162.398438 C 76.675781 137.152344 70.234375 119.40625 70.167969 119.226562 C 70.015625 118.8125 69.558594 118.601562 69.144531 118.753906 Z M 104.816406 244.550781 L 92.238281 249.523438 C 91.828125 249.6875 91.625 250.152344 91.789062 250.558594 C 91.914062 250.875 92.210938 251.0625 92.53125 251.0625 C 92.628906 251.0625 92.726562 251.046875 92.824219 251.007812 L 105.402344 246.035156 C 105.8125 245.875 106.015625 245.410156 105.851562 245 C 105.6875 244.589844 105.226562 244.386719 104.816406 244.550781 Z M 83.082031 180.230469 C 83.109375 180.441406 86.214844 201.121094 87.082031 209.816406 C 87.125 210.253906 86.808594 210.648438 86.371094 210.6875 C 86.34375 210.691406 86.316406 210.695312 86.289062 210.695312 C 85.882812 210.695312 85.535156 210.386719 85.496094 209.972656 C 84.632812 201.320312 81.535156 180.675781 81.503906 180.46875 C 81.4375 180.03125 81.738281 179.625 82.171875 179.558594 C 82.605469 179.503906 83.015625 179.796875 83.082031 180.230469"/><path fill="#454582" d="M 186.019531 161.066406 C 186.019531 160.847656 185.839844 160.667969 185.617188 160.667969 L 178.085938 160.667969 C 177.863281 160.667969 177.683594 160.847656 177.683594 161.066406 C 177.683594 161.289062 177.863281 161.464844 178.085938 161.464844 L 185.617188 161.464844 C 185.839844 161.464844 186.019531 161.289062 186.019531 161.066406 Z M 184.375 163.578125 C 184.375 163.359375 184.199219 163.179688 183.976562 163.179688 L 179.726562 163.179688 C 179.503906 163.179688 179.328125 163.359375 179.328125 163.578125 C 179.328125 163.796875 179.503906 163.976562 179.726562 163.976562 L 183.976562 163.976562 C 184.199219 163.976562 184.375 163.796875 184.375 163.578125 Z M 177.976562 156.113281 L 185.730469 156.113281 L 185.730469 148.363281 L 177.976562 148.363281 Z M 193.125 143.195312 L 193.125 178.078125 L 171.066406 178.078125 L 161.355469 209.160156 C 161.25 209.5 160.933594 209.71875 160.59375 209.71875 C 160.515625 209.71875 160.433594 209.707031 160.355469 209.683594 C 160.296875 209.664062 160.253906 209.628906 160.203125 209.597656 C 159.886719 209.417969 159.71875 209.046875 159.832031 208.683594 L 160.160156 207.625 L 170.578125 174.296875 L 170.578125 143.195312 L 180.121094 143.195312 L 180.121094 145.273438 L 183.582031 145.273438 L 183.582031 143.195312 Z M 98.304688 134.199219 L 106.207031 137.027344 L 121.871094 192.351562 C 122.347656 192.3125 122.835938 192.328125 123.328125 192.421875 L 123.558594 192.453125 L 108.054688 137.691406 L 121.710938 142.582031 C 122.125 142.730469 122.582031 142.515625 122.730469 142.101562 C 122.878906 141.6875 122.664062 141.230469 122.25 141.082031 L 99.574219 132.957031 L 109.964844 100.734375 C 110.101562 100.3125 109.867188 99.863281 109.449219 99.730469 C 109.03125 99.589844 108.582031 99.824219 108.445312 100.242188 L 97.816406 133.203125 C 97.683594 133.613281 97.902344 134.050781 98.304688 134.199219 Z M 189.027344 243.71875 L 177.792969 236.488281 L 146.960938 216.636719 C 146.050781 216.050781 145.011719 215.703125 143.9375 215.621094 L 114.464844 213.328125 L 86.449219 211.152344 L 52.941406 208.550781 C 51.535156 208.441406 50.902344 210.277344 52.082031 211.058594 L 66.851562 220.839844 C 67.144531 221.027344 67.433594 221.214844 67.710938 221.410156 L 77.371094 227.804688 L 78.121094 227.503906 L 87.917969 234.222656 L 87.554688 234.550781 L 88.640625 235.269531 C 88.816406 235.214844 89 235.15625 89.1875 235.09375 L 93.890625 238.320312 L 100.683594 238.691406 L 122.105469 231.183594 C 122.519531 231.03125 122.976562 231.253906 123.125 231.671875 C 123.269531 232.085938 123.050781 232.542969 122.632812 232.6875 L 104.859375 238.917969 L 117.019531 239.582031 L 125.296875 240.355469 L 160.90625 243.683594 L 179.703125 245.445312 C 179.757812 245.136719 179.988281 244.882812 180.308594 244.808594 C 180.730469 244.707031 181.164062 244.976562 181.265625 245.40625 L 181.304688 245.59375 L 188.160156 246.234375 C 189.589844 246.367188 190.234375 244.492188 189.027344 243.71875 Z M 132.730469 182.46875 L 132.863281 182.542969 L 133.371094 182.832031 C 133.671875 183.003906 134.058594 182.902344 134.238281 182.605469 L 140.625 172.265625 C 140.808594 171.96875 140.726562 171.578125 140.4375 171.382812 L 139.949219 171.0625 L 139.683594 170.882812 C 139.375 170.679688 138.957031 170.773438 138.769531 171.089844 L 132.492188 181.574219 C 132.308594 181.886719 132.414062 182.289062 132.730469 182.46875 Z M 118.273438 104.777344 C 119.292969 104.511719 120.472656 100.582031 121.640625 95.113281 C 117.3125 96.128906 114.5 97.25 113.046875 97.921875 L 114.847656 106.007812 C 115.863281 105.527344 117 105.109375 118.273438 104.777344 Z M 181.453125 139.496094 L 180.945312 141.113281 L 181.453125 141.113281 Z M 169.738281 100.503906 L 170.636719 95.222656 C 167.160156 94.65625 163.875 94.21875 160.738281 93.871094 C 163.121094 97.03125 166.476562 99.125 169.738281 100.503906 Z M 177.605469 99.238281 C 177.433594 98.832031 177.625 98.363281 178.03125 98.191406 C 178.4375 98.019531 178.902344 98.210938 179.078125 98.617188 L 191.851562 128.84375 C 192.007812 129.21875 191.859375 129.652344 191.507812 129.851562 L 184.714844 133.675781 C 184.800781 133.855469 184.824219 134.066406 184.761719 134.269531 L 182.621094 141.113281 L 182.253906 141.113281 L 182.253906 138.453125 C 182.253906 138.25 182.09375 138.089844 181.898438 138.066406 L 182.964844 134.664062 L 164.496094 145.0625 C 164.109375 145.28125 163.625 145.144531 163.410156 144.757812 C 163.191406 144.375 163.328125 143.886719 163.714844 143.671875 L 190.105469 128.808594 L 177.605469 99.238281"/><path fill="#A73C28" d="M 181.898438 138.066406 C 181.882812 138.066406 181.871094 138.054688 181.851562 138.054688 C 181.632812 138.054688 181.453125 138.234375 181.453125 138.453125 L 181.453125 141.113281 L 182.253906 141.113281 L 182.253906 138.453125 C 182.253906 138.25 182.09375 138.089844 181.898438 138.066406 Z M 123.089844 231.617188 C 123.101562 231.636719 123.113281 231.648438 123.125 231.671875 C 123.269531 232.085938 123.050781 232.542969 122.632812 232.6875 L 90.648438 243.898438 C 90.5625 243.933594 90.472656 243.945312 90.382812 243.945312 C 90.054688 243.945312 89.746094 243.738281 89.632812 243.414062 C 89.488281 242.996094 89.703125 242.542969 90.121094 242.394531 L 122.105469 231.183594 C 122.28125 231.117188 122.457031 231.132812 122.621094 231.1875 L 121.1875 229.546875 C 120.472656 228.722656 119.425781 228.28125 118.335938 228.328125 C 110.152344 228.671875 95 233.242188 88.640625 235.269531 C 87.792969 235.539062 87.105469 235.761719 86.605469 235.925781 C 86.03125 236.113281 85.703125 236.222656 85.703125 236.222656 L 86.6875 235.339844 L 87.554688 234.550781 L 96.367188 226.59375 C 97.730469 225.367188 97.921875 223.304688 96.820312 221.84375 C 96.1875 221.007812 95.074219 220.699219 94.101562 221.089844 L 77.371094 227.804688 L 70.980469 230.375 C 70.980469 230.375 64.246094 235.632812 64.253906 250.859375 C 64.253906 253.105469 64.402344 255.566406 64.738281 258.261719 C 65.074219 260.933594 71.816406 257.320312 75.964844 254.824219 C 76.296875 254.621094 76.613281 254.429688 76.910156 254.242188 C 77.023438 254.113281 77.167969 254.019531 77.335938 253.980469 C 78.449219 253.28125 79.171875 252.800781 79.171875 252.800781 L 84.117188 254.652344 L 88.363281 256.238281 C 91.03125 257.238281 94.027344 256.617188 96.082031 254.644531 L 104.761719 246.289062 L 92.824219 251.007812 C 92.726562 251.046875 92.628906 251.0625 92.53125 251.0625 C 92.210938 251.0625 91.914062 250.875 91.789062 250.558594 C 91.625 250.152344 91.828125 249.6875 92.238281 249.523438 L 104.816406 244.550781 C 105.226562 244.386719 105.6875 244.589844 105.851562 245 C 105.886719 245.089844 105.898438 245.179688 105.898438 245.269531 L 115.925781 239.476562 L 123.550781 235.078125 C 124.625 234.457031 124.742188 232.949219 123.773438 232.167969 Z M 172.003906 217.113281 C 172.003906 217.113281 165.355469 215.683594 160.296875 214.203125 C 157.652344 213.429688 155.441406 212.644531 154.839844 212.039062 C 153.960938 211.160156 150.230469 205.09375 147.503906 200.578125 C 145.585938 197.394531 142.351562 195.242188 138.679688 194.699219 L 131.15625 193.582031 L 126.652344 192.914062 L 126.601562 192.90625 L 123.558594 192.453125 L 123.328125 192.421875 C 122.835938 192.328125 122.347656 192.3125 121.871094 192.351562 C 119.410156 192.5625 117.320312 194.453125 116.988281 197.03125 L 116.792969 198.566406 C 116.96875 198.359375 117.238281 198.234375 117.53125 198.285156 L 139.179688 201.992188 C 139.613281 202.066406 139.90625 202.476562 139.828125 202.914062 C 139.765625 203.300781 139.425781 203.578125 139.046875 203.578125 C 139 203.578125 138.953125 203.570312 138.910156 203.5625 L 117.261719 199.859375 C 116.886719 199.792969 116.636719 199.476562 116.613281 199.113281 L 116.570312 199.105469 C 114.050781 198.664062 111.679688 200.425781 111.371094 202.964844 L 111.363281 203.027344 C 111.089844 205.285156 112.566406 207.363281 114.753906 207.886719 C 114.757812 207.871094 114.75 207.855469 114.753906 207.839844 C 114.8125 207.402344 115.214844 207.101562 115.652344 207.152344 L 138.566406 210.277344 C 139.003906 210.335938 139.308594 210.738281 139.25 211.175781 C 139.195312 211.574219 138.855469 211.863281 138.460938 211.863281 C 138.425781 211.863281 138.386719 211.859375 138.351562 211.855469 L 115.433594 208.738281 C 115.171875 208.699219 114.96875 208.535156 114.851562 208.3125 L 114.253906 210.386719 C 113.964844 211.390625 114.0625 212.425781 114.464844 213.328125 L 143.9375 215.621094 C 145.011719 215.703125 146.050781 216.050781 146.960938 216.636719 L 177.792969 236.488281 C 176.433594 231.03125 175.105469 225.847656 174.046875 221.761719 Z M 120.976562 133.503906 L 114.847656 106.007812 C 115.863281 105.527344 117 105.109375 118.273438 104.777344 C 119.292969 104.511719 120.472656 100.582031 121.640625 95.113281 C 121.921875 93.777344 122.207031 92.355469 122.484375 90.875 C 129.597656 96.554688 140.804688 95.339844 148.226562 91.171875 C 151.992188 89.058594 154.261719 86.351562 155.582031 83.53125 C 156.125 82.988281 156.632812 82.4375 157.121094 81.878906 C 157.292969 84.464844 157.597656 86.769531 158.09375 88.527344 C 158.667969 90.585938 159.59375 92.351562 160.738281 93.871094 C 163.121094 97.03125 166.476562 99.125 169.738281 100.503906 L 164.421875 131.71875 C 158.800781 136.046875 151.242188 139.101562 141.089844 139.101562 C 133.316406 139.101562 126.414062 136.859375 120.976562 133.503906"/><path fill="#E24E34" d="M 172.082031 63.703125 C 170.507812 66.640625 167.972656 68.578125 165.480469 69.066406 C 165.429688 69.074219 165.378906 69.089844 165.324219 69.097656 C 164.597656 69.222656 163.875 69.222656 163.183594 69.078125 C 163.046875 69.386719 162.90625 69.691406 162.761719 70 C 162.746094 70.027344 162.722656 70.050781 162.707031 70.085938 C 162.703125 70.09375 162.675781 70.175781 162.617188 70.316406 C 161.667969 72.332031 160.640625 74.300781 159.535156 76.191406 C 158.847656 77.28125 158.050781 78.4375 157.136719 79.597656 C 158.050781 74.78125 156.71875 70.445312 156.09375 68.515625 C 156.800781 67.253906 157.855469 65.542969 158.824219 63.9375 C 161.632812 59.269531 165.148438 53.949219 167.1875 52.597656 C 167.449219 52.425781 167.566406 52.121094 167.527344 51.828125 C 168.554688 51.757812 169.550781 51.9375 170.449219 52.417969 C 171.015625 52.71875 171.5 53.128906 171.914062 53.609375 C 173.898438 55.914062 174.066406 60.007812 172.082031 63.703125 Z M 152.726562 56.492188 C 152.570312 56.667969 152.355469 56.757812 152.140625 56.761719 C 151.949219 56.761719 151.753906 56.695312 151.597656 56.558594 C 147.683594 53.0625 143.867188 54.699219 143.707031 54.769531 C 143.300781 54.945312 142.832031 54.769531 142.652344 54.367188 C 142.46875 53.964844 142.648438 53.496094 143.046875 53.3125 C 143.246094 53.226562 147.949219 51.160156 152.664062 55.367188 C 152.988281 55.660156 153.019531 56.164062 152.726562 56.492188 Z M 148.546875 61.53125 C 148.441406 62.492188 147.582031 63.183594 146.625 63.082031 C 145.664062 62.976562 144.972656 62.117188 145.078125 61.160156 C 145.179688 60.203125 146.039062 59.511719 146.996094 59.613281 C 147.957031 59.714844 148.648438 60.574219 148.546875 61.53125 Z M 131.90625 52.894531 C 131.75 53.078125 131.527344 53.175781 131.304688 53.179688 C 131.117188 53.183594 130.929688 53.121094 130.78125 52.992188 C 126.730469 49.585938 122.878906 51.414062 122.839844 51.433594 C 122.445312 51.628906 121.96875 51.464844 121.773438 51.070312 C 121.578125 50.675781 121.742188 50.195312 122.136719 50.003906 C 122.335938 49.90625 126.972656 47.707031 131.808594 51.769531 C 132.144531 52.054688 132.1875 52.558594 131.90625 52.894531 Z M 129.015625 59.433594 C 128.910156 60.390625 128.050781 61.085938 127.09375 60.980469 C 126.132812 60.878906 125.441406 60.015625 125.546875 59.058594 C 125.648438 58.101562 126.507812 57.410156 127.464844 57.511719 C 128.425781 57.613281 129.117188 58.472656 129.015625 59.433594 Z M 162.109375 50.914062 C 155.847656 49.238281 147.253906 47.898438 145.59375 37.714844 C 144.402344 30.441406 137.988281 29.519531 134.792969 29.523438 C 128.863281 37.542969 120.808594 41.449219 114.90625 43.324219 C 114.25 49.613281 113.675781 57.210938 114.496094 64.753906 C 116.898438 64.308594 128.417969 62.40625 133.398438 63.261719 C 133.460938 63.273438 133.457031 63.269531 133.503906 63.277344 C 133.835938 62.347656 134.222656 61.320312 134.679688 60.167969 C 134.839844 59.757812 135.304688 59.558594 135.714844 59.71875 C 136.125 59.882812 136.324219 60.34375 136.164062 60.753906 C 135.804688 61.664062 135.445312 62.617188 135.113281 63.558594 C 135.078125 63.550781 152.800781 67.0625 154.980469 67.488281 C 155.902344 65.855469 157.386719 63.167969 158.917969 60.722656 C 160.847656 57.648438 163.003906 54.496094 164.804688 52.601562 C 164.828125 52.574219 164.855469 52.542969 164.882812 52.515625 C 164.15625 51.773438 163.242188 51.21875 162.109375 50.914062"/></svg>