<svg xmlns="http://www.w3.org/2000/svg" xmlns:xlink="http://www.w3.org/1999/xlink" width="450" viewBox="0 0 450 450" height="450" version="1.0"><defs><g id="a"><path d="M -13.578125 -23.1875 L -12.46875 -26.96875 L 6.296875 -21.46875 L 5.125 -17.484375 L -7.265625 -21.109375 L -2.3125 -14.796875 L -3.25 -11.59375 L -10.65625 -8.84375 L 1.546875 -5.265625 L 0.359375 -1.25 L -18.40625 -6.75 L -17.28125 -10.546875 L -6.78125 -14.375 Z M -13.578125 -23.1875"/></g><g id="b"><path d="M -17.046875 -9.671875 L -11.75 -20.671875 L -8.328125 -19.03125 L -11.8125 -11.796875 L -8.625 -10.265625 L -5.5625 -16.640625 L -2.140625 -14.984375 L -5.203125 -8.609375 L -1.015625 -6.609375 L 2.46875 -13.84375 L 5.875 -12.203125 L 0.578125 -1.203125 Z M -19.046875 -19.921875 L -15.34375 -16.21875 L -16.5625 -13.671875 L -20.84375 -16.171875 Z M -19.046875 -19.921875"/></g><g id="c"><path d="M -11.0625 -18.578125 C -10.269531 -19.753906 -9.359375 -20.644531 -8.328125 -21.25 C -7.296875 -21.863281 -6.207031 -22.222656 -5.0625 -22.328125 C -3.925781 -22.441406 -2.753906 -22.320312 -1.546875 -21.96875 C -0.347656 -21.613281 0.804688 -21.054688 1.921875 -20.296875 C 3.046875 -19.535156 3.988281 -18.660156 4.75 -17.671875 C 5.507812 -16.679688 6.0625 -15.648438 6.40625 -14.578125 C 6.75 -13.503906 6.859375 -12.425781 6.734375 -11.34375 C 6.617188 -10.269531 6.253906 -9.273438 5.640625 -8.359375 L 0.75 -1.09375 L -15.46875 -12.03125 Z M 2.03125 -9.78125 C 2.476562 -10.4375 2.722656 -11.085938 2.765625 -11.734375 C 2.804688 -12.378906 2.703125 -13.003906 2.453125 -13.609375 C 2.203125 -14.222656 1.832031 -14.800781 1.34375 -15.34375 C 0.851562 -15.894531 0.28125 -16.390625 -0.375 -16.828125 C -1.03125 -17.273438 -1.707031 -17.632812 -2.40625 -17.90625 C -3.113281 -18.175781 -3.796875 -18.3125 -4.453125 -18.3125 C -5.117188 -18.3125 -5.742188 -18.171875 -6.328125 -17.890625 C -6.921875 -17.609375 -7.441406 -17.140625 -7.890625 -16.484375 L -9.984375 -13.390625 L -0.0625 -6.6875 Z M 2.03125 -9.78125"/></g><g id="d"><path d="M -9.15625 -19.21875 L -6.5 -16.890625 L -7.46875 -15.796875 L 1.953125 -7.546875 L 2.921875 -8.640625 L 5.546875 -6.328125 L 0.859375 -0.96875 L -1.765625 -3.28125 L -0.796875 -4.390625 L -10.21875 -12.640625 L -11.1875 -11.53125 L -13.84375 -13.859375 Z M -9.15625 -19.21875"/></g><g id="e"><path d="M 5.375 -9.8125 C 6.03125 -10.40625 6.539062 -11.128906 6.90625 -11.984375 C 7.28125 -12.847656 7.472656 -13.925781 7.484375 -15.21875 L 11.203125 -15.078125 C 11.316406 -13.304688 11.085938 -11.691406 10.515625 -10.234375 C 9.953125 -8.785156 9.117188 -7.570312 8.015625 -6.59375 C 7.023438 -5.71875 5.910156 -5.097656 4.671875 -4.734375 C 3.441406 -4.378906 2.203125 -4.257812 0.953125 -4.375 C -0.296875 -4.5 -1.503906 -4.863281 -2.671875 -5.46875 C -3.835938 -6.070312 -4.878906 -6.890625 -5.796875 -7.921875 C -6.710938 -8.953125 -7.382812 -10.085938 -7.8125 -11.328125 C -8.238281 -12.578125 -8.425781 -13.832031 -8.375 -15.09375 C -8.332031 -16.351562 -8.046875 -17.570312 -7.515625 -18.75 C -6.992188 -19.925781 -6.234375 -20.953125 -5.234375 -21.828125 C -4.316406 -22.640625 -3.289062 -23.238281 -2.15625 -23.625 C -1.019531 -24.019531 0.300781 -24.175781 1.8125 -24.09375 L 1.953125 -20.265625 C 0.890625 -20.296875 0.0195312 -20.175781 -0.65625 -19.90625 C -1.332031 -19.632812 -1.953125 -19.25 -2.515625 -18.75 C -3.085938 -18.25 -3.519531 -17.660156 -3.8125 -16.984375 C -4.113281 -16.304688 -4.269531 -15.601562 -4.28125 -14.875 C -4.300781 -14.144531 -4.179688 -13.410156 -3.921875 -12.671875 C -3.660156 -11.941406 -3.253906 -11.265625 -2.703125 -10.640625 C -2.148438 -10.015625 -1.53125 -9.53125 -0.84375 -9.1875 C -0.15625 -8.84375 0.550781 -8.628906 1.28125 -8.546875 C 2.019531 -8.472656 2.742188 -8.539062 3.453125 -8.75 C 4.160156 -8.957031 4.800781 -9.3125 5.375 -9.8125 Z M 5.375 -9.8125"/></g><g id="f"><path d="M -1.46875 -22.421875 C -0.34375 -23.117188 0.859375 -23.550781 2.140625 -23.71875 C 3.421875 -23.882812 4.675781 -23.804688 5.90625 -23.484375 C 7.132812 -23.160156 8.28125 -22.613281 9.34375 -21.84375 C 10.414062 -21.082031 11.316406 -20.113281 12.046875 -18.9375 C 12.765625 -17.769531 13.226562 -16.53125 13.4375 -15.21875 C 13.65625 -13.90625 13.632812 -12.628906 13.375 -11.390625 C 13.113281 -10.148438 12.625 -8.988281 11.90625 -7.90625 C 11.195312 -6.820312 10.28125 -5.929688 9.15625 -5.234375 C 8.019531 -4.535156 6.804688 -4.109375 5.515625 -3.953125 C 4.234375 -3.796875 2.984375 -3.878906 1.765625 -4.203125 C 0.546875 -4.535156 -0.597656 -5.09375 -1.671875 -5.875 C -2.753906 -6.65625 -3.65625 -7.628906 -4.375 -8.796875 C -5.101562 -9.972656 -5.566406 -11.207031 -5.765625 -12.5 C -5.972656 -13.800781 -5.953125 -15.066406 -5.703125 -16.296875 C -5.453125 -17.535156 -4.96875 -18.691406 -4.25 -19.765625 C -3.53125 -20.835938 -2.601562 -21.722656 -1.46875 -22.421875 Z M 6.96875 -8.796875 C 7.601562 -9.191406 8.117188 -9.695312 8.515625 -10.3125 C 8.910156 -10.925781 9.175781 -11.59375 9.3125 -12.3125 C 9.457031 -13.03125 9.460938 -13.769531 9.328125 -14.53125 C 9.191406 -15.289062 8.90625 -16.023438 8.46875 -16.734375 C 8.03125 -17.441406 7.5 -18.023438 6.875 -18.484375 C 6.257812 -18.953125 5.59375 -19.285156 4.875 -19.484375 C 4.164062 -19.679688 3.445312 -19.738281 2.71875 -19.65625 C 2 -19.570312 1.320312 -19.332031 0.6875 -18.9375 C 0.0390625 -18.539062 -0.476562 -18.035156 -0.875 -17.421875 C -1.28125 -16.804688 -1.550781 -16.140625 -1.6875 -15.421875 C -1.820312 -14.703125 -1.820312 -13.957031 -1.6875 -13.1875 C -1.550781 -12.425781 -1.265625 -11.691406 -0.828125 -10.984375 C -0.390625 -10.273438 0.132812 -9.691406 0.75 -9.234375 C 1.375 -8.773438 2.039062 -8.445312 2.75 -8.25 C 3.457031 -8.050781 4.175781 -7.992188 4.90625 -8.078125 C 5.632812 -8.160156 6.320312 -8.398438 6.96875 -8.796875 Z M 6.96875 -8.796875"/></g><g id="g"><path d="M 8.828125 -14.5625 C 9.722656 -14.425781 10.492188 -14.101562 11.140625 -13.59375 C 11.796875 -13.09375 12.300781 -12.410156 12.65625 -11.546875 C 13 -10.722656 13.117188 -9.875 13.015625 -9 C 12.921875 -8.132812 12.625 -7.289062 12.125 -6.46875 C 11.6875 -5.695312 11.109375 -5.007812 10.390625 -4.40625 C 9.679688 -3.8125 8.875 -3.3125 7.96875 -2.90625 C 7.050781 -2.53125 6.125 -2.296875 5.1875 -2.203125 C 4.25 -2.117188 3.347656 -2.195312 2.484375 -2.4375 C 1.210938 -2.769531 0.1875 -3.378906 -0.59375 -4.265625 L 2.28125 -7.390625 C 2.351562 -7.222656 2.5 -7.035156 2.71875 -6.828125 C 2.945312 -6.617188 3.238281 -6.445312 3.59375 -6.3125 C 3.945312 -6.1875 4.363281 -6.125 4.84375 -6.125 C 5.332031 -6.125 5.867188 -6.25 6.453125 -6.5 C 6.929688 -6.695312 7.328125 -6.929688 7.640625 -7.203125 C 7.953125 -7.472656 8.191406 -7.742188 8.359375 -8.015625 C 8.535156 -8.296875 8.632812 -8.578125 8.65625 -8.859375 C 8.6875 -9.140625 8.65625 -9.398438 8.5625 -9.640625 C 8.445312 -9.910156 8.25 -10.128906 7.96875 -10.296875 C 7.695312 -10.460938 7.351562 -10.539062 6.9375 -10.53125 C 6.164062 -10.476562 5.367188 -10.375 4.546875 -10.21875 C 3.722656 -10.0625 2.898438 -9.957031 2.078125 -9.90625 C 1.253906 -9.863281 0.457031 -9.921875 -0.3125 -10.078125 C -1.09375 -10.234375 -1.816406 -10.601562 -2.484375 -11.1875 C -3.066406 -11.695312 -3.507812 -12.316406 -3.8125 -13.046875 C -4.144531 -13.867188 -4.28125 -14.738281 -4.21875 -15.65625 C -4.15625 -16.582031 -3.898438 -17.445312 -3.453125 -18.25 C -3.035156 -19 -2.488281 -19.664062 -1.8125 -20.25 C -1.144531 -20.84375 -0.378906 -21.316406 0.484375 -21.671875 C 1.359375 -22.035156 2.238281 -22.25 3.125 -22.3125 C 4.019531 -22.382812 4.882812 -22.304688 5.71875 -22.078125 C 6.519531 -21.878906 7.226562 -21.546875 7.84375 -21.078125 L 5.765625 -17.890625 C 5.210938 -18.234375 4.601562 -18.441406 3.9375 -18.515625 C 3.269531 -18.597656 2.609375 -18.503906 1.953125 -18.234375 C 1.035156 -17.847656 0.410156 -17.34375 0.078125 -16.71875 C -0.253906 -16.101562 -0.285156 -15.460938 -0.015625 -14.796875 C 0.109375 -14.492188 0.359375 -14.285156 0.734375 -14.171875 C 1.117188 -14.054688 1.578125 -13.992188 2.109375 -13.984375 C 2.640625 -13.984375 3.210938 -14.023438 3.828125 -14.109375 C 4.441406 -14.203125 5.054688 -14.289062 5.671875 -14.375 C 6.285156 -14.457031 6.867188 -14.519531 7.421875 -14.5625 C 7.984375 -14.613281 8.453125 -14.613281 8.828125 -14.5625 Z M 8.828125 -14.5625"/></g><g id="i"><path d="M 4.71875 -4.703125 L 12.625 -6.140625 L 13.296875 -2.421875 L 1.28125 -0.234375 L -2.21875 -19.484375 L 1.890625 -20.234375 Z M 4.71875 -4.703125"/></g><g id="j"><path d="M 12.8125 -19.921875 L 21.5 -0.5625 L 16.96875 -0.453125 L 15.09375 -4.59375 L 6.796875 -4.375 L 5.15625 -0.140625 L 0.609375 -0.015625 L 8.265625 -19.796875 Z M 13.40625 -8.359375 L 10.6875 -14.453125 L 8.28125 -8.21875 Z M 13.40625 -8.359375"/></g><g id="l"><path d="M 5.25 -18.890625 L 17.21875 -16.40625 L 16.4375 -12.671875 L 8.578125 -14.296875 L 7.859375 -10.84375 L 14.78125 -9.40625 L 14.015625 -5.6875 L 7.09375 -7.125 L 5.375 1.125 L 1.265625 0.265625 Z M 5.25 -18.890625"/></g><g id="m"><path d="M 19.125 -7.6875 C 18.914062 -7.09375 18.628906 -6.5625 18.265625 -6.09375 C 17.910156 -5.632812 17.507812 -5.238281 17.0625 -4.90625 C 16.613281 -4.570312 16.117188 -4.3125 15.578125 -4.125 C 15.035156 -3.9375 14.488281 -3.828125 13.9375 -3.796875 L 17.203125 6.234375 L 12.609375 4.5625 L 9.625 -4.90625 L 7.84375 -5.5625 L 5.15625 1.859375 L 1.21875 0.4375 L 7.875 -17.953125 L 15.8125 -15.078125 C 16.539062 -14.804688 17.175781 -14.410156 17.71875 -13.890625 C 18.257812 -13.378906 18.679688 -12.789062 18.984375 -12.125 C 19.285156 -11.457031 19.453125 -10.738281 19.484375 -9.96875 C 19.523438 -9.207031 19.40625 -8.445312 19.125 -7.6875 Z M 12.65625 -7.859375 C 13.15625 -7.679688 13.648438 -7.710938 14.140625 -7.953125 C 14.640625 -8.203125 14.984375 -8.59375 15.171875 -9.125 C 15.359375 -9.632812 15.335938 -10.140625 15.109375 -10.640625 C 14.890625 -11.148438 14.53125 -11.492188 14.03125 -11.671875 L 10.515625 -12.953125 L 9.140625 -9.140625 Z M 12.65625 -7.859375"/></g><g id="n"><path d="M 18.953125 -12.0625 C 20.109375 -11.40625 21.066406 -10.550781 21.828125 -9.5 C 22.585938 -8.457031 23.117188 -7.320312 23.421875 -6.09375 C 23.734375 -4.863281 23.8125 -3.59375 23.65625 -2.28125 C 23.5 -0.976562 23.078125 0.269531 22.390625 1.46875 C 21.722656 2.65625 20.863281 3.660156 19.8125 4.484375 C 18.757812 5.304688 17.625 5.898438 16.40625 6.265625 C 15.195312 6.640625 13.945312 6.769531 12.65625 6.65625 C 11.375 6.550781 10.15625 6.171875 9 5.515625 C 7.84375 4.859375 6.882812 4.003906 6.125 2.953125 C 5.363281 1.898438 4.832031 0.757812 4.53125 -0.46875 C 4.238281 -1.695312 4.175781 -2.96875 4.34375 -4.28125 C 4.507812 -5.601562 4.925781 -6.859375 5.59375 -8.046875 C 6.28125 -9.242188 7.144531 -10.25 8.1875 -11.0625 C 9.226562 -11.875 10.347656 -12.460938 11.546875 -12.828125 C 12.753906 -13.203125 14 -13.332031 15.28125 -13.21875 C 16.570312 -13.101562 17.796875 -12.71875 18.953125 -12.0625 Z M 11.046875 1.890625 C 11.703125 2.253906 12.394531 2.460938 13.125 2.515625 C 13.851562 2.578125 14.566406 2.492188 15.265625 2.265625 C 15.972656 2.035156 16.625 1.675781 17.21875 1.1875 C 17.820312 0.707031 18.328125 0.109375 18.734375 -0.609375 C 19.148438 -1.328125 19.410156 -2.070312 19.515625 -2.84375 C 19.628906 -3.613281 19.601562 -4.359375 19.4375 -5.078125 C 19.269531 -5.796875 18.972656 -6.453125 18.546875 -7.046875 C 18.128906 -7.648438 17.59375 -8.132812 16.9375 -8.5 C 16.28125 -8.875 15.585938 -9.085938 14.859375 -9.140625 C 14.128906 -9.203125 13.414062 -9.117188 12.71875 -8.890625 C 12.019531 -8.660156 11.367188 -8.300781 10.765625 -7.8125 C 10.160156 -7.320312 9.648438 -6.71875 9.234375 -6 C 8.828125 -5.28125 8.570312 -4.535156 8.46875 -3.765625 C 8.363281 -3.003906 8.390625 -2.265625 8.546875 -1.546875 C 8.710938 -0.828125 9.003906 -0.171875 9.421875 0.421875 C 9.847656 1.023438 10.390625 1.515625 11.046875 1.890625 Z M 11.046875 1.890625"/></g><g id="o"><path d="M 23.78125 -5.78125 L 26.984375 -3.140625 L 14.546875 11.96875 L 11.484375 9.453125 L 12.34375 -6.40625 L 4.21875 3.46875 L 1 0.828125 L 13.4375 -14.28125 L 16.46875 -11.796875 L 15.609375 4.15625 Z M 23.78125 -5.78125"/></g><g id="p"><path d="M 15 -12.5625 L 24.453125 -2.015625 L 21.609375 0.53125 L 18.265625 -3.203125 L 6.53125 7.296875 L 3.75 4.1875 L 15.484375 -6.3125 L 12.15625 -10.015625 Z M 15 -12.5625"/></g><g id="q"><path d="M 16.921875 -9.90625 L 23.796875 0.203125 L 20.65625 2.34375 L 16.125 -4.296875 L 13.203125 -2.3125 L 17.1875 3.53125 L 14.046875 5.671875 L 10.0625 -0.171875 L 6.21875 2.4375 L 10.75 9.078125 L 7.625 11.203125 L 0.75 1.09375 Z M 16.921875 -9.90625"/></g><g id="r"><path d="M 19.0625 7.84375 C 18.5 8.113281 17.925781 8.289062 17.34375 8.375 C 16.769531 8.457031 16.203125 8.460938 15.640625 8.390625 C 15.085938 8.316406 14.550781 8.15625 14.03125 7.90625 C 13.519531 7.664062 13.054688 7.363281 12.640625 7 L 7.984375 16.46875 L 5.84375 12.0625 L 10.3125 3.203125 L 9.484375 1.5 L 2.390625 4.9375 L 0.5625 1.171875 L 18.171875 -7.359375 L 21.859375 0.234375 C 22.191406 0.929688 22.367188 1.65625 22.390625 2.40625 C 22.421875 3.15625 22.3125 3.867188 22.0625 4.546875 C 21.8125 5.234375 21.429688 5.863281 20.921875 6.4375 C 20.410156 7.019531 19.789062 7.488281 19.0625 7.84375 Z M 14.546875 3.1875 C 14.785156 3.664062 15.164062 3.988281 15.6875 4.15625 C 16.207031 4.332031 16.722656 4.300781 17.234375 4.0625 C 17.734375 3.8125 18.078125 3.425781 18.265625 2.90625 C 18.453125 2.394531 18.425781 1.898438 18.1875 1.421875 L 16.5625 -1.9375 L 12.921875 -0.171875 Z M 14.546875 3.1875"/></g><g id="s"><path d="M 22.46875 7.421875 L 5.921875 20.671875 L 4.671875 16.3125 L 8.21875 13.453125 L 5.9375 5.484375 L 1.421875 4.953125 L 0.171875 0.578125 L 21.21875 3.046875 Z M 11.4375 10.890625 L 16.65625 6.734375 L 10.03125 5.96875 Z M 11.4375 10.890625"/></g><g id="t"><path d="M 0.296875 1.140625 L 1.171875 0.921875 L 1.609375 1.90625 C 1.691406 2.132812 1.800781 2.269531 1.9375 2.3125 C 2.082031 2.351562 2.328125 2.332031 2.671875 2.25 L 11.5625 -0.03125 C 11.875 -0.113281 12.070312 -0.207031 12.15625 -0.3125 C 12.238281 -0.414062 12.273438 -0.59375 12.265625 -0.84375 L 12.15625 -1.90625 L 13.046875 -2.125 L 14.328125 2.890625 L 13.4375 3.109375 L 13.03125 2.09375 C 12.925781 1.882812 12.800781 1.757812 12.65625 1.71875 C 12.519531 1.6875 12.285156 1.710938 11.953125 1.796875 L 8.28125 2.734375 L 9.859375 8.921875 L 13.609375 7.96875 C 13.921875 7.882812 14.117188 7.785156 14.203125 7.671875 C 14.285156 7.566406 14.320312 7.390625 14.3125 7.140625 L 14.203125 6.09375 L 15.09375 5.875 L 16.375 10.890625 L 15.484375 11.109375 L 15.078125 10.109375 C 14.972656 9.890625 14.851562 9.757812 14.71875 9.71875 C 14.582031 9.675781 14.34375 9.695312 14 9.78125 L 5.109375 12.0625 C 4.804688 12.132812 4.609375 12.226562 4.515625 12.34375 C 4.429688 12.457031 4.398438 12.640625 4.421875 12.890625 L 4.5 13.9375 L 3.625 14.15625 L 2.34375 9.140625 L 3.21875 8.921875 L 3.65625 9.90625 C 3.75 10.125 3.863281 10.253906 4 10.296875 C 4.132812 10.347656 4.375 10.332031 4.71875 10.25 L 8.734375 9.21875 L 7.15625 3.03125 L 3.0625 4.078125 C 2.757812 4.148438 2.5625 4.238281 2.46875 4.34375 C 2.375 4.445312 2.335938 4.617188 2.359375 4.859375 L 2.453125 5.9375 L 1.578125 6.15625 Z M 0.296875 1.140625"/></g><g id="u"><path d="M 2.546875 6.640625 C 2.066406 5.515625 1.898438 4.414062 2.046875 3.34375 C 2.191406 2.269531 2.613281 1.300781 3.3125 0.4375 C 4.007812 -0.425781 4.960938 -1.113281 6.171875 -1.625 C 7.179688 -2.0625 8.140625 -2.3125 9.046875 -2.375 C 9.960938 -2.4375 10.816406 -2.335938 11.609375 -2.078125 C 12.398438 -1.816406 13.097656 -1.394531 13.703125 -0.8125 C 14.316406 -0.226562 14.816406 0.503906 15.203125 1.390625 C 15.671875 2.503906 15.835938 3.585938 15.703125 4.640625 C 15.566406 5.691406 15.148438 6.640625 14.453125 7.484375 C 13.765625 8.335938 12.820312 9.019531 11.625 9.53125 C 10.3125 10.09375 9.054688 10.347656 7.859375 10.296875 C 6.660156 10.242188 5.597656 9.90625 4.671875 9.28125 C 3.742188 8.664062 3.035156 7.785156 2.546875 6.640625 Z M 3.8125 6.34375 C 4.320312 7.539062 5.140625 8.257812 6.265625 8.5 C 7.398438 8.738281 8.804688 8.5 10.484375 7.78125 C 11.578125 7.3125 12.441406 6.757812 13.078125 6.125 C 13.710938 5.488281 14.113281 4.789062 14.28125 4.03125 C 14.457031 3.28125 14.363281 2.488281 14 1.65625 C 13.488281 0.457031 12.648438 -0.28125 11.484375 -0.5625 C 10.328125 -0.84375 8.9375 -0.632812 7.3125 0.0625 C 6.25 0.519531 5.394531 1.078125 4.75 1.734375 C 4.101562 2.398438 3.695312 3.128906 3.53125 3.921875 C 3.363281 4.710938 3.457031 5.519531 3.8125 6.34375 Z M 3.8125 6.34375"/></g><g id="v"><path d="M 2.828125 5.21875 C 2.503906 4.675781 2.28125 4.085938 2.15625 3.453125 C 2.03125 2.816406 2.039062 2.222656 2.1875 1.671875 L 1.0625 1.984375 L 0.640625 1.28125 L 3.9375 -1.15625 L 4.5625 -0.28125 C 3.875 0.570312 3.46875 1.40625 3.34375 2.21875 C 3.226562 3.039062 3.394531 3.820312 3.84375 4.5625 C 4.113281 5.007812 4.414062 5.34375 4.75 5.5625 C 5.09375 5.789062 5.445312 5.898438 5.8125 5.890625 C 6.1875 5.878906 6.566406 5.757812 6.953125 5.53125 C 7.546875 5.164062 7.90625 4.6875 8.03125 4.09375 C 8.164062 3.507812 8.101562 2.664062 7.84375 1.5625 C 7.613281 0.59375 7.5 -0.21875 7.5 -0.875 C 7.507812 -1.539062 7.648438 -2.101562 7.921875 -2.5625 C 8.191406 -3.019531 8.609375 -3.421875 9.171875 -3.765625 C 9.628906 -4.035156 10.097656 -4.203125 10.578125 -4.265625 C 11.066406 -4.328125 11.535156 -4.289062 11.984375 -4.15625 C 12.429688 -4.019531 12.859375 -3.785156 13.265625 -3.453125 C 13.679688 -3.128906 14.046875 -2.707031 14.359375 -2.1875 C 14.628906 -1.75 14.8125 -1.269531 14.90625 -0.75 C 15.007812 -0.238281 15.023438 0.242188 14.953125 0.703125 L 15.9375 0.40625 L 16.375 1.15625 L 13.328125 3.484375 L 12.65625 2.65625 C 13.351562 1.90625 13.769531 1.175781 13.90625 0.46875 C 14.050781 -0.238281 13.914062 -0.929688 13.5 -1.609375 C 13.15625 -2.179688 12.710938 -2.546875 12.171875 -2.703125 C 11.640625 -2.867188 11.101562 -2.789062 10.5625 -2.46875 C 10.21875 -2.257812 9.960938 -2 9.796875 -1.6875 C 9.628906 -1.375 9.550781 -0.96875 9.5625 -0.46875 C 9.570312 0.0195312 9.65625 0.640625 9.8125 1.390625 C 9.976562 2.128906 10.078125 2.78125 10.109375 3.34375 C 10.148438 3.90625 10.113281 4.390625 10 4.796875 C 9.894531 5.210938 9.71875 5.578125 9.46875 5.890625 C 9.226562 6.210938 8.894531 6.503906 8.46875 6.765625 C 7.800781 7.160156 7.113281 7.359375 6.40625 7.359375 C 5.695312 7.367188 5.03125 7.1875 4.40625 6.8125 C 3.78125 6.445312 3.253906 5.914062 2.828125 5.21875 Z M 2.828125 5.21875"/></g><g id="w"><path d="M 0.734375 0.921875 L 1.4375 0.359375 L 2.234375 1.09375 C 2.410156 1.257812 2.570312 1.332031 2.71875 1.3125 C 2.863281 1.300781 3.078125 1.1875 3.359375 0.96875 L 10.546875 -4.71875 C 10.804688 -4.914062 10.953125 -5.082031 10.984375 -5.21875 C 11.015625 -5.351562 10.972656 -5.535156 10.859375 -5.765625 L 10.34375 -6.671875 L 11.046875 -7.234375 L 13.90625 -3.609375 C 14.601562 -2.722656 15.078125 -1.898438 15.328125 -1.140625 C 15.585938 -0.378906 15.613281 0.3125 15.40625 0.9375 C 15.207031 1.5625 14.785156 2.128906 14.140625 2.640625 C 13.648438 3.035156 13.128906 3.304688 12.578125 3.453125 C 12.023438 3.609375 11.472656 3.640625 10.921875 3.546875 C 10.378906 3.453125 9.847656 3.242188 9.328125 2.921875 C 8.816406 2.597656 8.347656 2.164062 7.921875 1.625 C 7.703125 1.351562 7.515625 1.101562 7.359375 0.875 C 7.203125 0.644531 7.109375 0.488281 7.078125 0.40625 L 4.484375 2.453125 C 4.222656 2.660156 4.070312 2.835938 4.03125 2.984375 C 3.988281 3.140625 4.035156 3.335938 4.171875 3.578125 L 4.859375 4.6875 L 4.15625 5.25 Z M 8.46875 0.6875 C 9.09375 1.46875 9.769531 1.894531 10.5 1.96875 C 11.238281 2.039062 12.019531 1.753906 12.84375 1.109375 C 13.59375 0.503906 13.976562 -0.128906 14 -0.796875 C 14.03125 -1.460938 13.707031 -2.226562 13.03125 -3.09375 L 12.4375 -3.84375 L 7.875 -0.234375 C 7.90625 -0.140625 7.976562 -0.0078125 8.09375 0.15625 C 8.207031 0.332031 8.332031 0.507812 8.46875 0.6875 Z M 8.46875 0.6875"/></g><g id="x"><path d="M 0.828125 0.828125 L 1.46875 0.1875 L 2.40625 0.890625 C 2.59375 1.035156 2.753906 1.085938 2.890625 1.046875 C 3.035156 1.015625 3.234375 0.875 3.484375 0.625 L 9.984375 -5.84375 C 10.210938 -6.0625 10.335938 -6.238281 10.359375 -6.375 C 10.390625 -6.507812 10.335938 -6.6875 10.203125 -6.90625 L 9.515625 -7.8125 L 10.15625 -8.453125 L 13.921875 -4.65625 L 13.28125 -4.015625 L 12.34375 -4.75 C 12.15625 -4.875 11.988281 -4.914062 11.84375 -4.875 C 11.695312 -4.832031 11.503906 -4.691406 11.265625 -4.453125 L 4.765625 2.015625 C 4.535156 2.234375 4.40625 2.410156 4.375 2.546875 C 4.351562 2.691406 4.414062 2.859375 4.5625 3.046875 L 5.234375 3.984375 L 4.59375 4.625 Z M 0.828125 0.828125"/></g><g id="y"><path d="M 3.0625 2.40625 L 3.625 1.6875 L 4.921875 2.4375 C 5.148438 2.550781 5.335938 2.582031 5.484375 2.53125 C 5.640625 2.488281 5.8125 2.34375 6 2.09375 L 12.21875 -5.828125 L 11.40625 -6.46875 C 11.039062 -6.757812 10.707031 -6.96875 10.40625 -7.09375 C 10.113281 -7.226562 9.816406 -7.28125 9.515625 -7.25 C 9.210938 -7.21875 8.867188 -7.101562 8.484375 -6.90625 C 8.097656 -6.71875 7.625 -6.445312 7.0625 -6.09375 L 6.4375 -6.921875 L 9.3125 -9.40625 L 17.875 -2.6875 L 16.09375 0.671875 L 15.140625 0.234375 C 15.441406 -0.578125 15.625 -1.226562 15.6875 -1.71875 C 15.757812 -2.207031 15.703125 -2.617188 15.515625 -2.953125 C 15.328125 -3.296875 14.988281 -3.660156 14.5 -4.046875 L 13.6875 -4.6875 L 7.4375 3.28125 C 7.238281 3.539062 7.140625 3.734375 7.140625 3.859375 C 7.140625 3.992188 7.222656 4.160156 7.390625 4.359375 L 8.4375 5.453125 L 7.875 6.171875 Z M 3.0625 2.40625"/></g><g id="z"><path d="M 0.25 0.140625 L 0.703125 -0.640625 L 1.546875 -0.3125 C 1.765625 -0.25 1.945312 -0.242188 2.09375 -0.296875 C 2.25 -0.347656 2.488281 -0.507812 2.8125 -0.78125 L 11.75 -8.4375 L 13.46875 -7.453125 L 11.375 4.140625 C 11.320312 4.484375 11.300781 4.726562 11.3125 4.875 C 11.320312 5.03125 11.425781 5.203125 11.625 5.390625 L 12.21875 5.90625 L 11.75 6.71875 L 7.390625 4.234375 L 7.84375 3.453125 L 8.859375 3.875 C 9.097656 3.957031 9.273438 3.957031 9.390625 3.875 C 9.503906 3.789062 9.585938 3.582031 9.640625 3.25 L 10.109375 0.78125 L 5.71875 -1.71875 L 3.90625 -0.125 C 3.644531 0.0820312 3.503906 0.269531 3.484375 0.4375 C 3.472656 0.601562 3.570312 0.785156 3.78125 0.984375 L 4.625 1.625 L 4.1875 2.390625 Z M 6.59375 -2.453125 L 10.328125 -0.3125 L 11.578125 -6.734375 L 11.53125 -6.765625 Z M 6.59375 -2.453125"/></g><g id="A"><path d="M 1.09375 0.4375 L 1.4375 -0.40625 L 2.5 -0.15625 C 2.726562 -0.101562 2.898438 -0.117188 3.015625 -0.203125 C 3.140625 -0.285156 3.265625 -0.492188 3.390625 -0.828125 L 6.8125 -9.328125 C 6.925781 -9.628906 6.960938 -9.847656 6.921875 -9.984375 C 6.890625 -10.117188 6.769531 -10.253906 6.5625 -10.390625 L 5.65625 -10.9375 L 5.984375 -11.78125 L 10.96875 -9.78125 L 10.640625 -8.9375 L 9.421875 -9.25 C 9.171875 -9.289062 8.988281 -9.273438 8.875 -9.203125 C 8.757812 -9.128906 8.644531 -8.941406 8.53125 -8.640625 L 4.75 0.796875 L 6.734375 1.59375 C 7.265625 1.800781 7.71875 1.894531 8.09375 1.875 C 8.46875 1.863281 8.847656 1.703125 9.234375 1.390625 C 9.617188 1.078125 10.078125 0.585938 10.609375 -0.078125 L 11.5625 0.296875 L 9.625 3.859375 Z M 1.09375 0.4375"/></g><g id="B"><path d="M 1.15625 0.203125 L 1.3125 -0.6875 L 2.40625 -0.6875 C 2.644531 -0.675781 2.8125 -0.722656 2.90625 -0.828125 C 3 -0.941406 3.078125 -1.171875 3.140625 -1.515625 L 4.6875 -10.5625 C 4.738281 -10.875 4.734375 -11.09375 4.671875 -11.21875 C 4.617188 -11.34375 4.472656 -11.453125 4.234375 -11.546875 L 3.234375 -11.875 L 3.375 -12.765625 L 8.6875 -11.859375 C 10.15625 -11.609375 11.351562 -11.160156 12.28125 -10.515625 C 13.207031 -9.878906 13.851562 -9.066406 14.21875 -8.078125 C 14.582031 -7.085938 14.65625 -5.941406 14.4375 -4.640625 C 14.25 -3.554688 13.914062 -2.613281 13.4375 -1.8125 C 12.96875 -1.007812 12.363281 -0.363281 11.625 0.125 C 10.894531 0.613281 10.050781 0.929688 9.09375 1.078125 C 8.144531 1.234375 7.09375 1.210938 5.9375 1.015625 Z M 6.125 0 C 7.039062 0.15625 7.847656 0.175781 8.546875 0.0625 C 9.253906 -0.0507812 9.867188 -0.300781 10.390625 -0.6875 C 10.910156 -1.082031 11.332031 -1.625 11.65625 -2.3125 C 11.988281 -3 12.238281 -3.832031 12.40625 -4.8125 C 12.601562 -5.945312 12.582031 -6.9375 12.34375 -7.78125 C 12.101562 -8.625 11.648438 -9.304688 10.984375 -9.828125 C 10.316406 -10.347656 9.441406 -10.703125 8.359375 -10.890625 L 6.6875 -11.171875 L 4.828125 -0.3125 C 4.953125 -0.269531 5.144531 -0.210938 5.40625 -0.140625 C 5.664062 -0.078125 5.90625 -0.03125 6.125 0 Z M 6.125 0"/></g><g id="C"><path d="M 1.171875 0.03125 L 1.203125 -0.875 L 2.28125 -1.015625 C 2.519531 -1.035156 2.679688 -1.109375 2.765625 -1.234375 C 2.847656 -1.359375 2.894531 -1.597656 2.90625 -1.953125 L 3.171875 -11.125 C 3.179688 -11.445312 3.144531 -11.664062 3.0625 -11.78125 C 2.988281 -11.894531 2.828125 -11.976562 2.578125 -12.03125 L 1.53125 -12.21875 L 1.5625 -13.125 L 10.265625 -12.875 L 10.859375 -9.78125 L 9.875 -9.5 C 9.632812 -10.164062 9.398438 -10.671875 9.171875 -11.015625 C 8.953125 -11.359375 8.664062 -11.59375 8.3125 -11.71875 C 7.96875 -11.851562 7.488281 -11.929688 6.875 -11.953125 L 5.0625 -12 L 4.921875 -7.140625 L 6.546875 -7.09375 C 7.003906 -7.082031 7.332031 -7.097656 7.53125 -7.140625 C 7.738281 -7.191406 7.890625 -7.320312 7.984375 -7.53125 C 8.085938 -7.738281 8.203125 -8.085938 8.328125 -8.578125 L 9.21875 -8.65625 L 9.09375 -4.390625 L 8.203125 -4.28125 C 8.148438 -4.769531 8.078125 -5.128906 7.984375 -5.359375 C 7.898438 -5.585938 7.742188 -5.734375 7.515625 -5.796875 C 7.296875 -5.867188 6.957031 -5.910156 6.5 -5.921875 L 4.875 -5.96875 L 4.734375 -0.875 L 7.15625 -0.8125 C 7.757812 -0.789062 8.234375 -0.835938 8.578125 -0.953125 C 8.929688 -1.066406 9.21875 -1.296875 9.4375 -1.640625 C 9.65625 -1.984375 9.851562 -2.488281 10.03125 -3.15625 L 11.078125 -3.125 L 10.53125 0.3125 Z M 1.171875 0.03125"/></g><g id="D"><path d="M 1.15625 -0.203125 L 1 -1.09375 L 2.03125 -1.453125 C 2.257812 -1.523438 2.398438 -1.628906 2.453125 -1.765625 C 2.503906 -1.898438 2.503906 -2.140625 2.453125 -2.484375 L 0.859375 -11.515625 C 0.804688 -11.835938 0.726562 -12.046875 0.625 -12.140625 C 0.53125 -12.242188 0.359375 -12.289062 0.109375 -12.28125 L -0.953125 -12.265625 L -1.109375 -13.15625 L 7.46875 -14.65625 L 8.671875 -11.765625 L 7.765625 -11.296875 C 7.390625 -11.898438 7.054688 -12.347656 6.765625 -12.640625 C 6.484375 -12.929688 6.15625 -13.101562 5.78125 -13.15625 C 5.414062 -13.207031 4.929688 -13.179688 4.328125 -13.078125 L 2.53125 -12.765625 L 3.375 -7.984375 L 4.984375 -8.265625 C 5.429688 -8.335938 5.75 -8.414062 5.9375 -8.5 C 6.132812 -8.59375 6.257812 -8.75 6.3125 -8.96875 C 6.363281 -9.195312 6.40625 -9.566406 6.4375 -10.078125 L 7.28125 -10.328125 L 8.015625 -6.140625 L 7.171875 -5.84375 C 7.015625 -6.3125 6.875 -6.644531 6.75 -6.84375 C 6.625 -7.050781 6.441406 -7.164062 6.203125 -7.1875 C 5.972656 -7.207031 5.632812 -7.179688 5.1875 -7.109375 L 3.578125 -6.828125 L 4.453125 -1.8125 L 6.84375 -2.234375 C 7.4375 -2.335938 7.890625 -2.476562 8.203125 -2.65625 C 8.523438 -2.84375 8.757812 -3.125 8.90625 -3.5 C 9.050781 -3.882812 9.144531 -4.425781 9.1875 -5.125 L 10.21875 -5.296875 L 10.375 -1.8125 Z M 1.15625 -0.203125"/></g><g id="E"><path d="M 1.109375 -0.375 L 0.828125 -1.234375 L 1.796875 -1.734375 C 2.003906 -1.828125 2.125 -1.945312 2.15625 -2.09375 C 2.1875 -2.238281 2.144531 -2.472656 2.03125 -2.796875 L -0.84375 -11.515625 C -0.9375 -11.816406 -1.035156 -12.007812 -1.140625 -12.09375 C -1.242188 -12.175781 -1.425781 -12.207031 -1.6875 -12.1875 L -2.734375 -12 L -3.015625 -12.875 L 0.953125 -14.171875 L 10.234375 -5.921875 L 10.1875 -6.078125 L 7.484375 -14.265625 C 7.390625 -14.566406 7.28125 -14.753906 7.15625 -14.828125 C 7.039062 -14.910156 6.859375 -14.941406 6.609375 -14.921875 L 5.578125 -14.734375 L 5.296875 -15.609375 L 9.671875 -17.046875 L 9.953125 -16.171875 L 8.984375 -15.703125 C 8.773438 -15.585938 8.648438 -15.457031 8.609375 -15.3125 C 8.578125 -15.164062 8.617188 -14.925781 8.734375 -14.59375 L 12.21875 -4.03125 L 10.390625 -3.421875 L 0.34375 -12.171875 L 0.390625 -12.03125 L 3.328125 -3.15625 C 3.421875 -2.851562 3.519531 -2.660156 3.625 -2.578125 C 3.738281 -2.492188 3.914062 -2.472656 4.15625 -2.515625 L 5.21875 -2.671875 L 5.5 -1.8125 Z M 1.109375 -0.375"/></g><g id="F"><path d="M 5.4375 -2.40625 C 4.875 -2.125 4.265625 -1.945312 3.609375 -1.875 C 2.960938 -1.800781 2.378906 -1.851562 1.859375 -2.03125 L 2.0625 -0.90625 L 1.3125 -0.546875 L -0.828125 -4.015625 L 0.109375 -4.578125 C 0.898438 -3.816406 1.691406 -3.34375 2.484375 -3.15625 C 3.285156 -2.976562 4.078125 -3.082031 4.859375 -3.46875 C 5.316406 -3.695312 5.671875 -3.96875 5.921875 -4.28125 C 6.179688 -4.59375 6.320312 -4.9375 6.34375 -5.3125 C 6.363281 -5.6875 6.273438 -6.070312 6.078125 -6.46875 C 5.765625 -7.09375 5.320312 -7.492188 4.75 -7.671875 C 4.175781 -7.847656 3.320312 -7.847656 2.1875 -7.671875 C 1.207031 -7.523438 0.390625 -7.484375 -0.265625 -7.546875 C -0.921875 -7.609375 -1.46875 -7.789062 -1.90625 -8.09375 C -2.34375 -8.40625 -2.707031 -8.851562 -3 -9.4375 C -3.238281 -9.914062 -3.367188 -10.398438 -3.390625 -10.890625 C -3.410156 -11.378906 -3.332031 -11.84375 -3.15625 -12.28125 C -2.988281 -12.726562 -2.722656 -13.140625 -2.359375 -13.515625 C -1.992188 -13.890625 -1.539062 -14.210938 -1 -14.484375 C -0.539062 -14.710938 -0.0507812 -14.859375 0.46875 -14.921875 C 0.988281 -14.984375 1.472656 -14.957031 1.921875 -14.84375 L 1.71875 -15.828125 L 2.5 -16.21875 L 4.5625 -13.015625 L 3.671875 -12.40625 C 2.984375 -13.164062 2.289062 -13.640625 1.59375 -13.828125 C 0.90625 -14.023438 0.207031 -13.941406 -0.5 -13.578125 C -1.101562 -13.285156 -1.503906 -12.878906 -1.703125 -12.359375 C -1.910156 -11.835938 -1.875 -11.289062 -1.59375 -10.71875 C -1.414062 -10.351562 -1.175781 -10.078125 -0.875 -9.890625 C -0.582031 -9.703125 -0.191406 -9.59375 0.296875 -9.5625 C 0.785156 -9.53125 1.414062 -9.570312 2.1875 -9.6875 C 2.925781 -9.78125 3.578125 -9.820312 4.140625 -9.8125 C 4.703125 -9.800781 5.1875 -9.722656 5.59375 -9.578125 C 6.007812 -9.429688 6.363281 -9.222656 6.65625 -8.953125 C 6.945312 -8.679688 7.203125 -8.328125 7.421875 -7.890625 C 7.765625 -7.191406 7.90625 -6.488281 7.84375 -5.78125 C 7.789062 -5.070312 7.554688 -4.421875 7.140625 -3.828125 C 6.734375 -3.242188 6.164062 -2.769531 5.4375 -2.40625 Z M 5.4375 -2.40625"/></g><g id="G"><path d="M 0.96875 -0.65625 L 0.46875 -1.40625 L 1.28125 -2.140625 C 1.457031 -2.304688 1.539062 -2.460938 1.53125 -2.609375 C 1.53125 -2.753906 1.429688 -2.972656 1.234375 -3.265625 L -3.875 -10.890625 C -4.050781 -11.148438 -4.207031 -11.304688 -4.34375 -11.359375 C -4.476562 -11.410156 -4.660156 -11.382812 -4.890625 -11.28125 L -5.84375 -10.828125 L -6.359375 -11.578125 L 0.875 -16.421875 L 3.15625 -14.265625 L 2.515625 -13.46875 C 1.929688 -13.863281 1.445312 -14.132812 1.0625 -14.28125 C 0.6875 -14.4375 0.316406 -14.460938 -0.046875 -14.359375 C -0.410156 -14.265625 -0.847656 -14.046875 -1.359375 -13.703125 L -2.859375 -12.703125 L -0.140625 -8.671875 L 1.203125 -9.5625 C 1.585938 -9.820312 1.847656 -10.03125 1.984375 -10.1875 C 2.117188 -10.34375 2.164062 -10.535156 2.125 -10.765625 C 2.082031 -10.992188 1.972656 -11.347656 1.796875 -11.828125 L 2.46875 -12.390625 L 4.84375 -8.859375 L 4.1875 -8.25 C 3.863281 -8.613281 3.597656 -8.863281 3.390625 -9 C 3.191406 -9.132812 2.976562 -9.164062 2.75 -9.09375 C 2.53125 -9.019531 2.226562 -8.851562 1.84375 -8.59375 L 0.5 -7.703125 L 3.34375 -3.46875 L 5.359375 -4.8125 C 5.859375 -5.144531 6.210938 -5.457031 6.421875 -5.75 C 6.640625 -6.050781 6.738281 -6.40625 6.71875 -6.8125 C 6.695312 -7.21875 6.566406 -7.75 6.328125 -8.40625 L 7.203125 -8.984375 L 8.75 -5.859375 Z M 0.96875 -0.65625"/></g><g id="H"><path d="M 0.875 -0.78125 L 0.265625 -1.453125 L 0.953125 -2.3125 C 1.097656 -2.476562 1.148438 -2.632812 1.109375 -2.78125 C 1.078125 -2.9375 0.945312 -3.140625 0.71875 -3.390625 L -5.4375 -10.1875 C -5.65625 -10.425781 -5.828125 -10.5625 -5.953125 -10.59375 C -6.078125 -10.625 -6.253906 -10.578125 -6.484375 -10.453125 L -7.34375 -9.859375 L -7.953125 -10.53125 L -4.859375 -13.34375 L 6.953125 -9.5625 L 6.84375 -9.671875 L 1.0625 -16.0625 C 0.84375 -16.300781 0.664062 -16.4375 0.53125 -16.46875 C 0.394531 -16.5 0.21875 -16.453125 0 -16.328125 L -0.859375 -15.734375 L -1.46875 -16.40625 L 1.9375 -19.5 L 2.546875 -18.828125 L 1.84375 -18 C 1.695312 -17.800781 1.640625 -17.628906 1.671875 -17.484375 C 1.703125 -17.347656 1.835938 -17.148438 2.078125 -16.890625 L 9.546875 -8.640625 L 8.109375 -7.34375 L -4.625 -11.265625 L -4.515625 -11.15625 L 1.75 -4.234375 C 1.957031 -3.992188 2.128906 -3.859375 2.265625 -3.828125 C 2.410156 -3.796875 2.585938 -3.84375 2.796875 -3.96875 L 3.6875 -4.5625 L 4.296875 -3.890625 Z M -3.03125 -16.96875 C -3.207031 -16.8125 -3.410156 -16.671875 -3.640625 -16.546875 C -3.878906 -16.421875 -4.203125 -16.289062 -4.609375 -16.15625 C -4.984375 -16.007812 -5.273438 -15.882812 -5.484375 -15.78125 C -5.703125 -15.6875 -5.847656 -15.609375 -5.921875 -15.546875 C -6.054688 -15.421875 -6.140625 -15.285156 -6.171875 -15.140625 C -6.203125 -15.003906 -6.1875 -14.773438 -6.125 -14.453125 L -6.796875 -14.328125 C -7.023438 -15.054688 -7.128906 -15.585938 -7.109375 -15.921875 C -7.097656 -16.265625 -6.957031 -16.5625 -6.6875 -16.8125 C -6.539062 -16.9375 -6.359375 -17.054688 -6.140625 -17.171875 C -5.921875 -17.285156 -5.578125 -17.421875 -5.109375 -17.578125 C -4.835938 -17.671875 -4.609375 -17.753906 -4.421875 -17.828125 C -4.242188 -17.898438 -4.101562 -17.96875 -4 -18.03125 C -3.894531 -18.09375 -3.816406 -18.148438 -3.765625 -18.203125 C -3.648438 -18.304688 -3.582031 -18.421875 -3.5625 -18.546875 C -3.550781 -18.679688 -3.570312 -18.914062 -3.625 -19.25 L -2.953125 -19.40625 C -2.734375 -18.675781 -2.628906 -18.140625 -2.640625 -17.796875 C -2.660156 -17.460938 -2.789062 -17.1875 -3.03125 -16.96875 Z M -3.03125 -16.96875"/></g><g id="I"><path d="M 0.171875 -0.21875 L -0.53125 -0.796875 L -0.0625 -1.578125 C 0.03125 -1.773438 0.0625 -1.953125 0.03125 -2.109375 C 0.0078125 -2.273438 -0.0976562 -2.535156 -0.296875 -2.890625 L -6.40625 -12.96875 L -5.15625 -14.5 L 5.9375 -10.5625 C 6.269531 -10.445312 6.507812 -10.378906 6.65625 -10.359375 C 6.8125 -10.347656 6.992188 -10.425781 7.203125 -10.59375 L 7.796875 -11.09375 L 8.53125 -10.5 L 5.375 -6.609375 L 4.671875 -7.1875 L 5.265625 -8.109375 C 5.390625 -8.328125 5.414062 -8.5 5.34375 -8.625 C 5.28125 -8.757812 5.082031 -8.875 4.75 -8.96875 L 2.40625 -9.84375 L -0.78125 -5.921875 L 0.5 -3.875 C 0.675781 -3.59375 0.84375 -3.425781 1 -3.375 C 1.15625 -3.320312 1.347656 -3.390625 1.578125 -3.578125 L 2.359375 -4.3125 L 3.046875 -3.75 Z M -1.34375 -6.890625 L 1.359375 -10.234375 L -4.765625 -12.515625 L -4.8125 -12.46875 Z M -1.34375 -6.890625"/></g><g id="J"><path d="M 0.59375 -1.015625 L -0.1875 -1.46875 L 0.203125 -2.484375 C 0.296875 -2.691406 0.300781 -2.859375 0.21875 -2.984375 C 0.144531 -3.117188 -0.0351562 -3.273438 -0.328125 -3.453125 L -8.234375 -8.09375 C -8.515625 -8.25 -8.71875 -8.320312 -8.84375 -8.3125 C -8.976562 -8.3125 -9.132812 -8.21875 -9.3125 -8.03125 L -9.96875 -7.21875 L -10.75 -7.671875 L -8.640625 -11.265625 L 3.765625 -11.203125 L 3.640625 -11.28125 L -3.796875 -15.65625 C -4.078125 -15.8125 -4.285156 -15.878906 -4.421875 -15.859375 C -4.554688 -15.847656 -4.710938 -15.753906 -4.890625 -15.578125 L -5.546875 -14.765625 L -6.328125 -15.21875 L -4 -19.1875 L -3.21875 -18.734375 L -3.625 -17.734375 C -3.707031 -17.503906 -3.710938 -17.320312 -3.640625 -17.1875 C -3.566406 -17.0625 -3.378906 -16.910156 -3.078125 -16.734375 L 6.515625 -11.109375 L 5.53125 -9.4375 L -7.78125 -9.375 L -7.65625 -9.296875 L 0.40625 -4.5625 C 0.675781 -4.40625 0.878906 -4.332031 1.015625 -4.34375 C 1.160156 -4.351562 1.304688 -4.445312 1.453125 -4.625 L 2.15625 -5.453125 L 2.9375 -5 Z M 0.59375 -1.015625"/></g><g id="K"><path d="M 0.40625 -1.015625 L -0.4375 -1.359375 L -7.96875 -12.734375 L -9.46875 -9.015625 C -9.632812 -8.597656 -9.707031 -8.234375 -9.6875 -7.921875 C -9.675781 -7.617188 -9.539062 -7.304688 -9.28125 -6.984375 C -9.03125 -6.660156 -8.625 -6.269531 -8.0625 -5.8125 L -8.40625 -4.75 L -11.640625 -6.296875 L -8.0625 -15.171875 L -7.1875 -14.828125 L 0.296875 -3.484375 L 1.78125 -7.171875 C 1.96875 -7.640625 2.050781 -8.054688 2.03125 -8.421875 C 2.019531 -8.796875 1.875 -9.164062 1.59375 -9.53125 C 1.320312 -9.90625 0.90625 -10.34375 0.34375 -10.84375 L 0.734375 -11.796875 L 4.0625 -10.0625 Z M 0.40625 -1.015625"/></g><g id="L"><path d="M 0.0625 -0.265625 L -0.8125 -0.484375 L -0.734375 -1.40625 C -0.734375 -1.625 -0.773438 -1.800781 -0.859375 -1.9375 C -0.953125 -2.070312 -1.164062 -2.253906 -1.5 -2.484375 L -11.3125 -9.015625 L -10.828125 -10.9375 L 0.890625 -12.078125 C 1.234375 -12.117188 1.472656 -12.164062 1.609375 -12.21875 C 1.753906 -12.269531 1.890625 -12.414062 2.015625 -12.65625 L 2.359375 -13.34375 L 3.265625 -13.125 L 2.0625 -8.265625 L 1.1875 -8.484375 L 1.3125 -9.578125 C 1.332031 -9.828125 1.285156 -9.992188 1.171875 -10.078125 C 1.054688 -10.171875 0.832031 -10.191406 0.5 -10.140625 L -2.015625 -9.9375 L -3.234375 -5.03125 L -1.1875 -3.734375 C -0.90625 -3.535156 -0.679688 -3.445312 -0.515625 -3.46875 C -0.359375 -3.5 -0.21875 -3.644531 -0.09375 -3.90625 L 0.3125 -4.90625 L 1.171875 -4.6875 Z M -4.171875 -5.65625 L -3.125 -9.828125 L -9.625 -9.296875 L -9.640625 -9.234375 Z M -4.171875 -5.65625"/></g><clipPath id="M"><path d="M 236 177 L 290.785156 177 L 290.785156 218 L 236 218 Z M 236 177"/></clipPath><clipPath id="N"><path d="M 160.285156 177 L 215 177 L 215 218 L 160.285156 218 Z M 160.285156 177"/></clipPath><clipPath id="O"><path d="M 175 171 L 276 171 L 276 301.367188 L 175 301.367188 Z M 175 171"/></clipPath></defs><g><use x="98.288" y="204.559" xmlns:xlink="http://www.w3.org/1999/xlink" xlink:href="#a" xlink:type="simple" xlink:actuate="onLoad" xlink:show="embed"/></g><g><use x="105.947" y="180.226" xmlns:xlink="http://www.w3.org/1999/xlink" xlink:href="#b" xlink:type="simple" xlink:actuate="onLoad" xlink:show="embed"/></g><g><use x="113.258" y="165.021" xmlns:xlink="http://www.w3.org/1999/xlink" xlink:href="#c" xlink:type="simple" xlink:actuate="onLoad" xlink:show="embed"/></g><g><use x="125.329" y="147.877" xmlns:xlink="http://www.w3.org/1999/xlink" xlink:href="#d" xlink:type="simple" xlink:actuate="onLoad" xlink:show="embed"/></g><g><use x="133.003" y="138.873" xmlns:xlink="http://www.w3.org/1999/xlink" xlink:href="#e" xlink:type="simple" xlink:actuate="onLoad" xlink:show="embed"/></g><g><use x="148.793" y="125.031" xmlns:xlink="http://www.w3.org/1999/xlink" xlink:href="#f" xlink:type="simple" xlink:actuate="onLoad" xlink:show="embed"/></g><g><use x="168.492" y="113.221" xmlns:xlink="http://www.w3.org/1999/xlink" xlink:href="#g" xlink:type="simple" xlink:actuate="onLoad" xlink:show="embed"/></g><g><use x="186.405" y="106.226" xmlns:xlink="http://www.w3.org/1999/xlink" xlink:href="#h" xlink:type="simple" xlink:actuate="onLoad" xlink:show="embed"/></g><g><use x="195.939" y="103.441" xmlns:xlink="http://www.w3.org/1999/xlink" xlink:href="#i" xlink:type="simple" xlink:actuate="onLoad" xlink:show="embed"/></g><g><use x="211.407" y="100.457" xmlns:xlink="http://www.w3.org/1999/xlink" xlink:href="#j" xlink:type="simple" xlink:actuate="onLoad" xlink:show="embed"/></g><g><use x="235.586" y="100.428" xmlns:xlink="http://www.w3.org/1999/xlink" xlink:href="#k" xlink:type="simple" xlink:actuate="onLoad" xlink:show="embed"/></g><g><use x="245.466" y="101.421" xmlns:xlink="http://www.w3.org/1999/xlink" xlink:href="#l" xlink:type="simple" xlink:actuate="onLoad" xlink:show="embed"/></g><g><use x="261.047" y="104.626" xmlns:xlink="http://www.w3.org/1999/xlink" xlink:href="#m" xlink:type="simple" xlink:actuate="onLoad" xlink:show="embed"/></g><g><use x="280.567" y="111.76" xmlns:xlink="http://www.w3.org/1999/xlink" xlink:href="#n" xlink:type="simple" xlink:actuate="onLoad" xlink:show="embed"/></g><g><use x="300.386" y="123.219" xmlns:xlink="http://www.w3.org/1999/xlink" xlink:href="#o" xlink:type="simple" xlink:actuate="onLoad" xlink:show="embed"/></g><g><use x="317.218" y="137.496" xmlns:xlink="http://www.w3.org/1999/xlink" xlink:href="#p" xlink:type="simple" xlink:actuate="onLoad" xlink:show="embed"/></g><g><use x="328.78" y="150.644" xmlns:xlink="http://www.w3.org/1999/xlink" xlink:href="#q" xlink:type="simple" xlink:actuate="onLoad" xlink:show="embed"/></g><g><use x="338.268" y="164.595" xmlns:xlink="http://www.w3.org/1999/xlink" xlink:href="#r" xlink:type="simple" xlink:actuate="onLoad" xlink:show="embed"/></g><g><use x="347.308" y="183.283" xmlns:xlink="http://www.w3.org/1999/xlink" xlink:href="#s" xlink:type="simple" xlink:actuate="onLoad" xlink:show="embed"/></g><g><use x="84.086" y="253.892" xmlns:xlink="http://www.w3.org/1999/xlink" xlink:href="#t" xlink:type="simple" xlink:actuate="onLoad" xlink:show="embed"/></g><g><use x="90.366" y="275.925" xmlns:xlink="http://www.w3.org/1999/xlink" xlink:href="#u" xlink:type="simple" xlink:actuate="onLoad" xlink:show="embed"/></g><g><use x="99.289" y="295.248" xmlns:xlink="http://www.w3.org/1999/xlink" xlink:href="#v" xlink:type="simple" xlink:actuate="onLoad" xlink:show="embed"/></g><g><use x="109.033" y="310.553" xmlns:xlink="http://www.w3.org/1999/xlink" xlink:href="#w" xlink:type="simple" xlink:actuate="onLoad" xlink:show="embed"/></g><g><use x="120.642" y="324.445" xmlns:xlink="http://www.w3.org/1999/xlink" xlink:href="#x" xlink:type="simple" xlink:actuate="onLoad" xlink:show="embed"/></g><g><use x="131.08" y="334.613" xmlns:xlink="http://www.w3.org/1999/xlink" xlink:href="#y" xlink:type="simple" xlink:actuate="onLoad" xlink:show="embed"/></g><g><use x="147.87" y="347.13" xmlns:xlink="http://www.w3.org/1999/xlink" xlink:href="#z" xlink:type="simple" xlink:actuate="onLoad" xlink:show="embed"/></g><g><use x="166.209" y="356.989" xmlns:xlink="http://www.w3.org/1999/xlink" xlink:href="#A" xlink:type="simple" xlink:actuate="onLoad" xlink:show="embed"/></g><g><use x="193.869" y="366.256" xmlns:xlink="http://www.w3.org/1999/xlink" xlink:href="#B" xlink:type="simple" xlink:actuate="onLoad" xlink:show="embed"/></g><g><use x="215.053" y="369.303" xmlns:xlink="http://www.w3.org/1999/xlink" xlink:href="#C" xlink:type="simple" xlink:actuate="onLoad" xlink:show="embed"/></g><g><use x="244.127" y="368.419" xmlns:xlink="http://www.w3.org/1999/xlink" xlink:href="#D" xlink:type="simple" xlink:actuate="onLoad" xlink:show="embed"/></g><g><use x="262.824" y="364.76" xmlns:xlink="http://www.w3.org/1999/xlink" xlink:href="#E" xlink:type="simple" xlink:actuate="onLoad" xlink:show="embed"/></g><g><use x="284.195" y="357.009" xmlns:xlink="http://www.w3.org/1999/xlink" xlink:href="#F" xlink:type="simple" xlink:actuate="onLoad" xlink:show="embed"/></g><g><use x="300.27" y="348.546" xmlns:xlink="http://www.w3.org/1999/xlink" xlink:href="#G" xlink:type="simple" xlink:actuate="onLoad" xlink:show="embed"/></g><g><use x="315.881" y="337.624" xmlns:xlink="http://www.w3.org/1999/xlink" xlink:href="#H" xlink:type="simple" xlink:actuate="onLoad" xlink:show="embed"/></g><g><use x="332.377" y="321.853" xmlns:xlink="http://www.w3.org/1999/xlink" xlink:href="#I" xlink:type="simple" xlink:actuate="onLoad" xlink:show="embed"/></g><g><use x="345.225" y="305.307" xmlns:xlink="http://www.w3.org/1999/xlink" xlink:href="#J" xlink:type="simple" xlink:actuate="onLoad" xlink:show="embed"/></g><g><use x="356.184" y="285.348" xmlns:xlink="http://www.w3.org/1999/xlink" xlink:href="#K" xlink:type="simple" xlink:actuate="onLoad" xlink:show="embed"/></g><g><use x="363.024" y="267.22" xmlns:xlink="http://www.w3.org/1999/xlink" xlink:href="#L" xlink:type="simple" xlink:actuate="onLoad" xlink:show="embed"/></g><g clip-path="url(#M)"><path fill="#100F0D" d="M 290.484375 183.015625 C 289.976562 179.925781 287.113281 177.589844 283.835938 177.589844 L 252.25 177.589844 C 247.644531 177.589844 243.519531 180.664062 241.996094 185.246094 C 241.046875 188.082031 239.355469 190.648438 237.09375 192.660156 C 236.203125 193.464844 236.128906 194.828125 236.925781 195.726562 C 237.722656 196.617188 239.09375 196.691406 239.988281 195.898438 C 242.808594 193.375 244.925781 190.164062 246.105469 186.609375 C 247.050781 183.761719 249.464844 181.925781 252.25 181.925781 L 283.835938 181.925781 C 284.996094 181.925781 286.039062 182.710938 286.199219 183.710938 C 286.308594 184.371094 286.140625 185 285.714844 185.5 C 285.308594 185.980469 284.699219 186.261719 284.066406 186.261719 L 271.058594 186.261719 C 269.863281 186.261719 268.890625 187.234375 268.890625 188.429688 C 268.890625 189.621094 269.863281 190.597656 271.058594 190.597656 C 271.695312 190.597656 272.304688 190.875 272.710938 191.359375 C 273.132812 191.859375 273.304688 192.484375 273.191406 193.144531 C 273.03125 194.144531 271.992188 194.929688 270.832031 194.929688 L 258.050781 194.929688 C 256.859375 194.929688 255.882812 195.90625 255.882812 197.097656 C 255.882812 198.292969 256.859375 199.265625 258.050781 199.265625 C 258.6875 199.265625 259.296875 199.546875 259.703125 200.027344 C 260.125 200.527344 260.296875 201.15625 260.1875 201.816406 C 260.023438 202.816406 258.984375 203.601562 257.824219 203.601562 L 245.046875 203.601562 C 244.199219 203.601562 243.4375 204.09375 243.082031 204.855469 C 242.726562 205.617188 242.84375 206.523438 243.386719 207.167969 C 243.953125 207.835938 244.164062 208.707031 243.953125 209.554688 C 243.757812 210.410156 243.183594 211.089844 242.378906 211.425781 L 237.695312 213.417969 C 236.59375 213.890625 236.078125 215.160156 236.542969 216.261719 C 236.898438 217.082031 237.695312 217.582031 238.542969 217.582031 C 238.828125 217.582031 239.117188 217.523438 239.390625 217.414062 L 244.070312 215.421875 C 246.15625 214.535156 247.652344 212.765625 248.179688 210.5625 C 248.382812 209.683594 248.425781 208.792969 248.304688 207.9375 L 257.824219 207.9375 C 261.101562 207.9375 263.960938 205.601562 264.472656 202.511719 C 264.648438 201.402344 264.546875 200.292969 264.183594 199.265625 L 270.832031 199.265625 C 274.105469 199.265625 276.96875 196.929688 277.476562 193.839844 C 277.65625 192.730469 277.554688 191.621094 277.191406 190.597656 L 284.066406 190.597656 C 285.980469 190.597656 287.78125 189.757812 289.019531 188.300781 C 290.253906 186.84375 290.789062 184.921875 290.484375 183.015625"/></g><g clip-path="url(#N)"><path fill="#100F0D" d="M 186.886719 199.265625 C 186.523438 200.292969 186.421875 201.402344 186.601562 202.511719 C 187.109375 205.601562 189.96875 207.9375 193.246094 207.9375 L 202.765625 207.9375 C 202.648438 208.792969 202.6875 209.683594 202.890625 210.5625 C 203.417969 212.765625 204.917969 214.535156 207 215.421875 L 211.683594 217.414062 C 211.953125 217.523438 212.242188 217.582031 212.527344 217.582031 C 213.375 217.582031 214.171875 217.082031 214.527344 216.261719 C 214.992188 215.160156 214.476562 213.890625 213.375 213.417969 L 208.691406 211.433594 C 207.886719 211.089844 207.3125 210.410156 207.117188 209.554688 C 206.90625 208.707031 207.117188 207.835938 207.683594 207.167969 C 208.226562 206.523438 208.347656 205.617188 207.988281 204.855469 C 207.632812 204.09375 206.871094 203.601562 206.027344 203.601562 L 193.246094 203.601562 C 192.085938 203.601562 191.046875 202.816406 190.886719 201.816406 C 190.773438 201.15625 190.945312 200.527344 191.367188 200.027344 C 191.773438 199.546875 192.382812 199.265625 193.019531 199.265625 C 194.210938 199.265625 195.1875 198.292969 195.1875 197.097656 C 195.1875 195.90625 194.210938 194.929688 193.019531 194.929688 L 180.242188 194.929688 C 179.082031 194.929688 178.039062 194.144531 177.878906 193.144531 C 177.769531 192.484375 177.9375 191.859375 178.359375 191.359375 C 178.765625 190.875 179.378906 190.597656 180.011719 190.597656 C 181.207031 190.597656 182.179688 189.621094 182.179688 188.429688 C 182.179688 187.234375 181.207031 186.261719 180.011719 186.261719 L 167.003906 186.261719 C 166.371094 186.261719 165.761719 185.980469 165.355469 185.5 C 164.929688 185 164.761719 184.371094 164.871094 183.710938 C 165.03125 182.710938 166.074219 181.925781 167.234375 181.925781 L 198.820312 181.925781 C 201.605469 181.925781 204.019531 183.761719 204.96875 186.609375 C 206.144531 190.164062 208.261719 193.375 211.082031 195.898438 C 211.976562 196.691406 213.351562 196.617188 214.144531 195.726562 C 214.941406 194.828125 214.867188 193.464844 213.976562 192.660156 C 211.714844 190.648438 210.023438 188.082031 209.074219 185.234375 C 207.550781 180.664062 203.425781 177.589844 198.820312 177.589844 L 167.234375 177.589844 C 163.957031 177.589844 161.09375 179.925781 160.585938 183.015625 C 160.28125 184.921875 160.816406 186.84375 162.050781 188.300781 C 163.289062 189.757812 165.09375 190.597656 167.003906 190.597656 L 173.882812 190.597656 C 173.515625 191.621094 173.414062 192.730469 173.59375 193.839844 C 174.101562 196.929688 176.964844 199.265625 180.242188 199.265625 L 186.886719 199.265625"/></g><g clip-path="url(#O)"><path fill="#100F0D" d="M 268 243.664062 C 265.945312 245.789062 263.175781 246.957031 260.21875 246.957031 L 208.191406 246.957031 C 206.28125 246.957031 204.476562 247.796875 203.238281 249.253906 C 202.003906 250.710938 201.46875 252.632812 201.773438 254.535156 C 202.179688 257.027344 204.121094 259 206.566406 259.683594 C 206.363281 259.871094 206.160156 260.039062 205.976562 260.234375 C 205.070312 261.167969 204.316406 262.199219 203.6875 263.300781 C 199.757812 261.515625 197.226562 257.558594 197.363281 253.121094 C 197.53125 247.332031 202.636719 242.621094 208.742188 242.621094 L 260.21875 242.621094 C 262.132812 242.621094 263.9375 241.785156 265.171875 240.328125 C 266.410156 238.871094 266.945312 236.949219 266.636719 235.042969 C 266.128906 231.953125 263.269531 229.617188 259.992188 229.617188 L 245.046875 229.617188 C 243.851562 229.617188 242.878906 228.640625 242.878906 227.449219 C 242.878906 226.253906 243.851562 225.28125 245.046875 225.28125 L 259.667969 225.28125 C 265.773438 225.28125 270.882812 229.988281 271.050781 235.78125 C 271.144531 238.746094 270.058594 241.546875 268 243.664062 Z M 253.707031 253.121094 C 253.800781 256.085938 252.71875 258.890625 250.660156 261.007812 C 248.601562 263.132812 245.832031 264.300781 242.878906 264.300781 L 217.09375 264.300781 C 213.816406 264.300781 210.953125 266.636719 210.445312 269.726562 C 210.140625 271.632812 210.675781 273.554688 211.910156 275.011719 C 213.148438 276.46875 214.949219 277.308594 216.863281 277.308594 L 225.535156 277.308594 C 226.730469 277.308594 227.703125 278.28125 227.703125 279.472656 C 227.703125 280.667969 226.730469 281.640625 225.535156 281.640625 L 217.414062 281.640625 C 211.308594 281.640625 206.203125 276.933594 206.035156 271.140625 C 205.941406 268.179688 207.023438 265.375 209.082031 263.257812 C 211.140625 261.132812 213.910156 259.964844 216.863281 259.964844 L 242.648438 259.964844 C 245.925781 259.964844 248.789062 257.628906 249.296875 254.535156 C 249.472656 253.425781 249.339844 252.316406 248.972656 251.292969 L 253.472656 251.292969 C 253.605469 251.902344 253.691406 252.511719 253.707031 253.121094 Z M 245.035156 271.140625 C 244.867188 276.933594 239.761719 281.640625 233.65625 281.640625 L 231.640625 281.640625 C 231.878906 280.957031 232.039062 280.238281 232.039062 279.472656 C 232.039062 278.710938 231.878906 277.992188 231.640625 277.308594 L 234.207031 277.308594 C 236.121094 277.308594 237.925781 276.46875 239.160156 275.011719 C 240.398438 273.554688 240.929688 271.632812 240.625 269.726562 C 240.558594 269.347656 240.464844 268.984375 240.335938 268.636719 L 242.878906 268.636719 C 243.511719 268.636719 244.148438 268.585938 244.765625 268.507812 C 244.953125 269.363281 245.070312 270.234375 245.035156 271.140625 Z M 233.976562 268.636719 C 235.136719 268.636719 236.179688 269.421875 236.339844 270.421875 C 236.449219 271.082031 236.28125 271.710938 235.859375 272.210938 C 235.453125 272.691406 234.839844 272.972656 234.207031 272.972656 L 232.039062 272.972656 L 232.039062 268.636719 Z M 223.367188 272.972656 L 223.367188 268.636719 L 227.703125 268.636719 L 227.703125 272.972656 Z M 216.863281 272.972656 C 216.230469 272.972656 215.621094 272.691406 215.214844 272.210938 C 214.789062 271.710938 214.621094 271.082031 214.730469 270.421875 C 214.890625 269.421875 215.933594 268.636719 217.09375 268.636719 L 219.03125 268.636719 L 219.03125 272.972656 Z M 227.703125 294.648438 C 227.703125 295.84375 226.730469 296.816406 225.535156 296.816406 C 224.339844 296.816406 223.367188 295.84375 223.367188 294.648438 L 223.367188 285.976562 L 227.703125 285.976562 Z M 227.703125 255.628906 L 223.367188 255.628906 L 223.367188 251.292969 L 227.703125 251.292969 Z M 242.878906 251.292969 C 243.511719 251.292969 244.121094 251.574219 244.527344 252.054688 C 244.953125 252.554688 245.121094 253.183594 245.011719 253.84375 C 244.851562 254.839844 243.808594 255.628906 242.648438 255.628906 L 232.039062 255.628906 L 232.039062 251.292969 Z M 208.421875 255.628906 C 207.261719 255.628906 206.21875 254.839844 206.058594 253.84375 C 205.949219 253.183594 206.117188 252.554688 206.542969 252.054688 C 206.949219 251.574219 207.558594 251.292969 208.191406 251.292969 L 219.03125 251.292969 L 219.03125 255.628906 Z M 190.851562 246.957031 C 187.894531 246.957031 185.125 245.789062 183.070312 243.664062 C 181.011719 241.546875 179.925781 238.746094 180.019531 235.78125 C 180.191406 229.988281 185.296875 225.28125 191.402344 225.28125 L 206.027344 225.28125 C 207.21875 225.28125 208.191406 226.253906 208.191406 227.449219 C 208.191406 228.640625 207.21875 229.617188 206.027344 229.617188 L 191.078125 229.617188 C 187.800781 229.617188 184.941406 231.953125 184.433594 235.042969 C 184.128906 236.949219 184.660156 238.871094 185.898438 240.328125 C 187.132812 241.785156 188.9375 242.621094 190.851562 242.621094 L 197.792969 242.621094 C 196.472656 243.867188 195.382812 245.339844 194.570312 246.957031 Z M 222.292969 187.523438 C 220.25 186.328125 219.03125 184.246094 219.03125 181.925781 C 219.03125 178.335938 221.945312 175.421875 225.535156 175.421875 C 229.125 175.421875 232.039062 178.335938 232.039062 181.925781 C 232.039062 184.246094 230.820312 186.328125 228.777344 187.523438 C 228.117188 187.910156 227.703125 188.621094 227.703125 189.394531 L 227.703125 238.285156 L 223.367188 238.285156 L 223.367188 189.394531 C 223.367188 188.621094 222.953125 187.910156 222.292969 187.523438 Z M 259.667969 220.945312 L 245.046875 220.945312 C 241.457031 220.945312 238.542969 223.859375 238.542969 227.449219 C 238.542969 231.039062 241.457031 233.953125 245.046875 233.953125 L 259.992188 233.953125 C 261.152344 233.953125 262.191406 234.738281 262.355469 235.738281 C 262.464844 236.398438 262.292969 237.023438 261.871094 237.523438 C 261.464844 238.007812 260.855469 238.285156 260.21875 238.285156 L 232.039062 238.285156 L 232.039062 190.554688 C 234.738281 188.511719 236.375 185.3125 236.375 181.925781 C 236.375 175.945312 231.515625 171.085938 225.535156 171.085938 C 219.558594 171.085938 214.695312 175.945312 214.695312 181.925781 C 214.695312 185.3125 216.332031 188.511719 219.03125 190.554688 L 219.03125 238.285156 L 190.851562 238.285156 C 190.214844 238.285156 189.605469 238.007812 189.199219 237.523438 C 188.777344 237.023438 188.605469 236.398438 188.71875 235.738281 C 188.878906 234.738281 189.917969 233.953125 191.078125 233.953125 L 206.027344 233.953125 C 209.617188 233.953125 212.527344 231.039062 212.527344 227.449219 C 212.527344 223.859375 209.617188 220.945312 206.027344 220.945312 L 191.402344 220.945312 C 182.976562 220.945312 175.929688 227.542969 175.683594 235.652344 C 175.558594 239.792969 177.074219 243.714844 179.960938 246.6875 C 182.839844 249.660156 186.710938 251.292969 190.851562 251.292969 L 193.1875 251.292969 C 193.105469 251.851562 193.042969 252.417969 193.027344 252.996094 C 192.832031 259.269531 196.492188 264.875 202.105469 267.324219 C 201.808594 268.601562 201.65625 269.921875 201.699219 271.269531 C 201.945312 279.382812 208.988281 285.976562 217.414062 285.976562 L 219.03125 285.976562 L 219.03125 294.648438 C 219.03125 298.238281 221.945312 301.152344 225.535156 301.152344 C 229.125 301.152344 232.039062 298.238281 232.039062 294.648438 L 232.039062 285.976562 L 233.65625 285.976562 C 242.082031 285.976562 249.128906 279.382812 249.371094 271.269531 C 249.414062 269.941406 249.261719 268.636719 248.964844 267.355469 C 250.746094 266.578125 252.378906 265.460938 253.765625 264.027344 C 256.644531 261.058594 258.171875 257.136719 258.042969 252.996094 C 258.027344 252.429688 257.941406 251.859375 257.855469 251.292969 L 260.21875 251.292969 C 264.359375 251.292969 268.230469 249.660156 271.109375 246.6875 C 273.988281 243.714844 275.511719 239.792969 275.386719 235.652344 C 275.140625 227.542969 268.09375 220.945312 259.667969 220.945312"/></g><path stroke-linecap="round" transform="matrix(2.25098 0 0 2.50435 75.134 227.375)" fill="none" d="M 0.500809 0.000173183 L 11.497771 0.000173183" stroke="#000"/><path stroke-linecap="round" transform="matrix(2.25098 0 0 2.50435 347.303 228.275)" fill="none" d="M 0.500633 -0.000444954 L 11.497596 -0.000444954" stroke="#000"/></svg>