<svg xmlns="http://www.w3.org/2000/svg" xmlns:xlink="http://www.w3.org/1999/xlink" width="75" viewBox="0 0 75 75" height="75" version="1.0"><defs><g id="b"><path d="M 0.609375 -6.1875 L 0.609375 0 L 1.0625 0 L 1.0625 -4.816406 L 2.214844 -1.378906 L 2.671875 -1.378906 L 3.820312 -4.816406 L 3.820312 0 L 4.730469 0 L 4.730469 -6.878906 L 4.046875 -6.878906 L 3.820312 -6.1875 L 2.671875 -2.753906 L 1.292969 -6.878906 L 0.378906 -6.878906 Z M 0.609375 -6.1875"/></g><g id="c"><path d="M 0.523438 -6.878906 L 0.523438 0 L 2.585938 0 L 2.585938 -0.457031 L 1.445312 -0.457031 L 1.445312 -2.984375 L 2.128906 -2.984375 L 2.355469 -3.441406 L 1.445312 -3.441406 L 1.445312 -6.421875 L 2.355469 -6.421875 L 2.585938 -6.878906 Z M 0.523438 -6.878906"/></g><g id="d"><path d="M 0.609375 -6.421875 L 0.609375 0 L 1.53125 0 C 2.746094 0 3.363281 -1.148438 3.363281 -3.441406 C 3.363281 -5.71875 2.746094 -6.871094 1.53125 -6.878906 L 0.378906 -6.878906 Z M 1.53125 -0.5625 L 1.53125 -6.308594 C 1.824219 -6.289062 2.042969 -6.0625 2.195312 -5.617188 C 2.347656 -5.160156 2.421875 -4.4375 2.421875 -3.441406 C 2.421875 -2.433594 2.347656 -1.710938 2.195312 -1.265625 C 2.042969 -0.808594 1.824219 -0.578125 1.53125 -0.5625 Z M 1.53125 -0.5625"/></g><g id="e"><path d="M 0.523438 -6.878906 L 0.523438 0 L 1.445312 0 L 1.445312 -6.878906 Z M 0.523438 -6.878906"/></g><g id="f"><path d="M 2.1875 0 C 2.335938 0 2.488281 -0.0195312 2.640625 -0.0742188 L 2.640625 -0.75 C 2.5 -0.550781 2.347656 -0.457031 2.1875 -0.457031 C 1.996094 -0.457031 1.832031 -0.5625 1.699219 -0.789062 C 1.644531 -0.875 1.585938 -1.007812 1.550781 -1.1875 C 1.5 -1.367188 1.464844 -1.578125 1.433594 -1.816406 C 1.40625 -2.050781 1.386719 -2.308594 1.378906 -2.59375 C 1.359375 -2.878906 1.359375 -3.164062 1.359375 -3.457031 C 1.359375 -3.742188 1.359375 -4.019531 1.378906 -4.296875 C 1.386719 -4.570312 1.40625 -4.828125 1.433594 -5.066406 C 1.464844 -5.300781 1.5 -5.511719 1.550781 -5.691406 C 1.585938 -5.863281 1.644531 -5.996094 1.699219 -6.089844 C 1.832031 -6.308594 1.996094 -6.421875 2.1875 -6.421875 C 2.347656 -6.421875 2.5 -6.320312 2.640625 -6.128906 L 2.640625 -6.804688 C 2.488281 -6.851562 2.335938 -6.878906 2.1875 -6.878906 C 1.824219 -6.878906 1.519531 -6.804688 1.28125 -6.671875 C 1.035156 -6.527344 0.847656 -6.320312 0.695312 -6.035156 C 0.542969 -5.75 0.4375 -5.386719 0.378906 -4.960938 C 0.3125 -4.523438 0.285156 -4.019531 0.285156 -3.441406 C 0.285156 -2.851562 0.3125 -2.347656 0.378906 -1.917969 C 0.4375 -1.480469 0.542969 -1.128906 0.695312 -0.847656 C 0.835938 -0.5625 1.027344 -0.34375 1.273438 -0.210938 C 1.519531 -0.0664062 1.824219 0 2.1875 0 Z M 2.1875 0"/></g><g id="g"><path d="M 2.117188 0 C 2.527344 0 2.851562 -0.09375 3.097656 -0.304688 C 3.34375 -0.503906 3.527344 -0.769531 3.660156 -1.09375 C 3.78125 -1.414062 3.859375 -1.785156 3.894531 -2.203125 C 3.933594 -2.613281 3.953125 -3.023438 3.953125 -3.441406 C 3.953125 -3.847656 3.933594 -4.257812 3.894531 -4.664062 C 3.859375 -5.074219 3.78125 -5.445312 3.660156 -5.777344 C 3.527344 -6.101562 3.34375 -6.367188 3.097656 -6.574219 C 2.851562 -6.773438 2.527344 -6.878906 2.117188 -6.878906 C 1.699219 -6.878906 1.378906 -6.773438 1.128906 -6.574219 C 0.882812 -6.367188 0.703125 -6.101562 0.578125 -5.777344 C 0.445312 -5.445312 0.371094 -5.074219 0.332031 -4.664062 C 0.292969 -4.257812 0.285156 -3.847656 0.285156 -3.441406 C 0.285156 -3.023438 0.292969 -2.613281 0.332031 -2.203125 C 0.371094 -1.785156 0.445312 -1.414062 0.578125 -1.09375 C 0.703125 -0.769531 0.882812 -0.503906 1.128906 -0.304688 C 1.378906 -0.09375 1.699219 0 2.117188 0 Z M 2.117188 -0.457031 C 1.96875 -0.457031 1.84375 -0.542969 1.738281 -0.710938 C 1.625 -0.882812 1.539062 -1.101562 1.472656 -1.386719 C 1.398438 -1.664062 1.347656 -1.976562 1.3125 -2.335938 C 1.273438 -2.699219 1.253906 -3.058594 1.253906 -3.441406 C 1.253906 -3.808594 1.273438 -4.171875 1.3125 -4.53125 C 1.347656 -4.894531 1.398438 -5.207031 1.472656 -5.492188 C 1.539062 -5.769531 1.625 -5.996094 1.738281 -6.167969 C 1.84375 -6.339844 1.96875 -6.421875 2.117188 -6.421875 C 2.261719 -6.421875 2.386719 -6.339844 2.5 -6.167969 C 2.605469 -5.996094 2.6875 -5.769531 2.765625 -5.492188 C 2.839844 -5.207031 2.890625 -4.894531 2.925781 -4.53125 C 2.964844 -4.171875 2.984375 -3.808594 2.984375 -3.441406 C 2.984375 -3.058594 2.964844 -2.699219 2.925781 -2.335938 C 2.890625 -1.976562 2.839844 -1.664062 2.765625 -1.386719 C 2.6875 -1.101562 2.605469 -0.882812 2.5 -0.710938 C 2.386719 -0.542969 2.261719 -0.457031 2.117188 -0.457031 Z M 2.117188 -0.457031"/></g><g id="h"><path d="M 1.558594 0 C 1.75 0 1.917969 -0.0390625 2.089844 -0.113281 C 2.261719 -0.191406 2.402344 -0.292969 2.539062 -0.4375 C 2.660156 -0.578125 2.753906 -0.75 2.832031 -0.949219 C 2.898438 -1.140625 2.925781 -1.359375 2.925781 -1.605469 C 2.925781 -1.816406 2.898438 -2.003906 2.851562 -2.195312 C 2.792969 -2.375 2.726562 -2.554688 2.652344 -2.726562 C 2.574219 -2.898438 2.480469 -3.058594 2.375 -3.222656 C 2.269531 -3.382812 2.167969 -3.542969 2.0625 -3.695312 C 1.910156 -3.914062 1.765625 -4.132812 1.644531 -4.34375 C 1.511719 -4.550781 1.425781 -4.761719 1.378906 -4.988281 C 1.359375 -5.035156 1.347656 -5.082031 1.347656 -5.140625 C 1.339844 -5.1875 1.339844 -5.234375 1.339844 -5.292969 C 1.339844 -5.492188 1.386719 -5.671875 1.480469 -5.84375 C 1.578125 -6.003906 1.71875 -6.089844 1.917969 -6.089844 C 2.035156 -6.089844 2.136719 -6.042969 2.242188 -5.96875 C 2.347656 -5.890625 2.433594 -5.804688 2.507812 -5.710938 L 2.90625 -6.035156 C 2.765625 -6.273438 2.585938 -6.472656 2.375 -6.632812 C 2.15625 -6.792969 1.910156 -6.878906 1.632812 -6.878906 C 1.445312 -6.878906 1.273438 -6.832031 1.101562 -6.757812 C 0.929688 -6.679688 0.789062 -6.566406 0.664062 -6.421875 C 0.542969 -6.28125 0.445312 -6.109375 0.371094 -5.921875 C 0.292969 -5.71875 0.265625 -5.5 0.285156 -5.265625 C 0.285156 -5.054688 0.304688 -4.867188 0.359375 -4.683594 C 0.410156 -4.496094 0.476562 -4.324219 0.550781 -4.152344 C 0.628906 -3.980469 0.722656 -3.808594 0.828125 -3.648438 C 0.929688 -3.488281 1.035156 -3.335938 1.148438 -3.183594 C 1.300781 -2.957031 1.433594 -2.746094 1.566406 -2.539062 C 1.691406 -2.328125 1.777344 -2.109375 1.832031 -1.890625 C 1.84375 -1.832031 1.851562 -1.785156 1.863281 -1.738281 C 1.863281 -1.683594 1.871094 -1.632812 1.871094 -1.585938 C 1.871094 -1.480469 1.851562 -1.378906 1.832031 -1.28125 C 1.804688 -1.1875 1.765625 -1.101562 1.71875 -1.027344 C 1.671875 -0.949219 1.617188 -0.882812 1.550781 -0.847656 C 1.472656 -0.796875 1.398438 -0.777344 1.300781 -0.777344 C 1.167969 -0.777344 1.054688 -0.816406 0.949219 -0.914062 C 0.847656 -0.996094 0.761719 -1.082031 0.703125 -1.167969 L 0.304688 -0.847656 C 0.324219 -0.796875 0.371094 -0.730469 0.4375 -0.636719 C 0.492188 -0.542969 0.578125 -0.457031 0.683594 -0.359375 C 0.789062 -0.265625 0.914062 -0.179688 1.0625 -0.105469 C 1.207031 -0.0273438 1.367188 0 1.558594 0 Z M 1.558594 0"/></g><g id="j"><path d="M 0.609375 -6.273438 L 0.609375 0 L 1.0625 0 L 1.0625 -5.046875 L 2.957031 0 L 3.582031 0 L 3.582031 -6.878906 L 3.125 -6.878906 L 3.125 -2.0625 L 1.292969 -6.878906 L 0.378906 -6.878906 C 0.378906 -6.871094 0.398438 -6.8125 0.4375 -6.707031 C 0.476562 -6.59375 0.53125 -6.453125 0.609375 -6.273438 Z M 0.609375 -6.273438"/></g><g id="k"><path d="M 0.523438 -6.878906 L 0.523438 0 L 1.445312 0 L 1.445312 -2.984375 L 2.128906 -2.984375 L 2.355469 -3.441406 L 1.445312 -3.441406 L 1.445312 -6.421875 L 2.355469 -6.421875 L 2.585938 -6.878906 Z M 0.523438 -6.878906"/></g><g id="l"><path d="M 0.609375 -6.1875 L 0.609375 0 L 1.53125 0 L 1.53125 -2.753906 L 1.777344 -2.753906 L 2.441406 0 L 3.363281 0 L 2.640625 -2.992188 C 2.878906 -3.136719 3.058594 -3.355469 3.183594 -3.640625 C 3.296875 -3.925781 3.363281 -4.324219 3.363281 -4.816406 C 3.363281 -5.199219 3.324219 -5.53125 3.25 -5.796875 C 3.175781 -6.0625 3.050781 -6.273438 2.898438 -6.433594 C 2.746094 -6.585938 2.554688 -6.699219 2.328125 -6.773438 C 2.101562 -6.84375 1.832031 -6.878906 1.53125 -6.878906 L 0.378906 -6.878906 Z M 1.53125 -3.316406 L 1.53125 -6.308594 C 1.699219 -6.308594 1.84375 -6.261719 1.957031 -6.175781 C 2.070312 -6.082031 2.15625 -5.96875 2.222656 -5.835938 C 2.28125 -5.691406 2.328125 -5.53125 2.355469 -5.359375 C 2.375 -5.179688 2.394531 -5 2.394531 -4.816406 C 2.394531 -4.628906 2.375 -4.4375 2.355469 -4.265625 C 2.328125 -4.085938 2.28125 -3.925781 2.222656 -3.792969 C 2.15625 -3.648438 2.070312 -3.535156 1.957031 -3.449219 C 1.84375 -3.363281 1.699219 -3.316406 1.53125 -3.316406 Z M 1.53125 -3.316406"/></g><g id="m"><path d="M 1.207031 -6.421875 L 1.207031 0 L 2.117188 0 L 2.117188 -6.421875 L 3.039062 -6.421875 L 3.039062 -6.878906 L 0.285156 -6.878906 L 0.285156 -6.421875 Z M 1.207031 -6.421875"/></g><g id="n"><path d="M 1.226562 -6.1875 L 0.191406 0 L 0.644531 0 L 0.835938 -1.148438 L 2.0625 -1.148438 L 2.253906 0 L 3.175781 0 L 2.023438 -6.878906 L 1.113281 -6.878906 Z M 1.984375 -1.605469 L 0.914062 -1.605469 L 1.453125 -4.816406 Z M 1.984375 -1.605469"/></g><clipPath id="a"><path d="M 11.402344 9.199219 L 57.902344 9.199219 L 57.902344 58.484375 L 11.402344 58.484375 Z M 11.402344 9.199219"/></clipPath></defs><g clip-path="url(#a)"><path fill="#E8E3F4" d="M 29.199219 52.726562 L 26.488281 45.132812 L 26.03125 44.742188 C 26.308594 44.953125 26.488281 45.132812 26.488281 45.132812 C 26.140625 44.1875 25.265625 43.546875 24.265625 43.5 L 14.527344 43.050781 C 13.660156 43.011719 12.800781 43.292969 12.15625 43.871094 C 10.90625 44.992188 11.589844 46.113281 11.589844 46.113281 L 15.09375 47.15625 C 15.117188 47.257812 15.144531 47.359375 15.183594 47.460938 L 18.210938 55.921875 L 26.175781 56.585938 C 27.746094 56.714844 29.222656 57.386719 30.359375 58.484375 L 30.1875 56.988281 C 30.023438 55.535156 29.691406 54.101562 29.199219 52.726562 Z M 57.894531 56.972656 L 34.269531 56.972656 C 34.269531 56.972656 34.320312 54.996094 34.402344 52.144531 L 33.445312 49.292969 L 34.503906 48.839844 C 34.574219 46.589844 34.65625 44.121094 34.746094 41.761719 C 34.84375 39.15625 35.3125 36.1875 35.902344 33.40625 L 34.476562 35.65625 L 32.378906 28.609375 L 32.421875 31.019531 L 23.175781 31.019531 L 21.199219 9.28125 L 30.320312 10.464844 L 31.695312 24.980469 L 33.890625 22.390625 L 36.855469 29.441406 C 37.652344 26.441406 38.453125 24.117188 38.804688 23.464844 C 39.589844 22.015625 41.304688 21.78125 41.304688 21.78125 L 42.929688 21.71875 C 43.050781 21.351562 43.121094 21.148438 43.121094 21.148438 L 45.273438 20.273438 C 49.523438 18.542969 54.371094 20.417969 56.394531 24.558594 C 56.496094 24.769531 56.597656 24.980469 56.699219 25.195312 C 57.671875 27.28125 56.335938 36.832031 57.195312 44.207031 C 58.070312 51.683594 57.894531 56.972656 57.894531 56.972656"/></g><path fill="#15253D" d="M 39.355469 13.8125 C 39.328125 13.785156 39.289062 13.769531 39.25 13.769531 C 39.207031 13.769531 39.164062 13.785156 39.132812 13.816406 C 38.960938 14.007812 38.660156 14.046875 38.441406 14.046875 C 38.226562 14.046875 38.054688 14.007812 38.054688 14.007812 C 38.042969 14.007812 38.03125 14.003906 38.019531 14.003906 C 37.945312 14.003906 37.882812 14.058594 37.867188 14.128906 C 37.847656 14.214844 37.902344 14.296875 37.984375 14.316406 C 38.007812 14.320312 38.195312 14.359375 38.433594 14.359375 C 38.71875 14.359375 39.113281 14.304688 39.363281 14.035156 C 39.390625 14.003906 39.40625 13.964844 39.40625 13.921875 C 39.402344 13.878906 39.386719 13.839844 39.355469 13.8125 Z M 38.632812 9.941406 C 38.640625 9.941406 38.652344 9.941406 38.660156 9.941406 C 38.785156 9.914062 38.871094 9.722656 38.859375 9.5 C 38.847656 9.289062 38.75 9.132812 38.632812 9.132812 C 38.625 9.132812 38.617188 9.132812 38.609375 9.136719 C 38.484375 9.160156 38.398438 9.355469 38.410156 9.578125 C 38.421875 9.785156 38.515625 9.941406 38.632812 9.941406 Z M 24.6875 44.046875 C 25.550781 44.121094 26.375 45.199219 26.382812 45.210938 C 26.425781 45.269531 26.507812 45.28125 26.566406 45.234375 C 26.625 45.191406 26.636719 45.109375 26.59375 45.050781 C 26.554688 45.003906 25.6875 43.867188 24.710938 43.785156 C 24.335938 43.753906 23.996094 43.878906 23.699219 44.15625 C 22.613281 45.179688 22.222656 48.355469 22.144531 49.117188 L 15.128906 47.03125 C 15.058594 47.007812 14.988281 47.046875 14.964844 47.117188 C 14.945312 47.1875 14.984375 47.261719 15.054688 47.28125 L 22.222656 49.414062 C 22.234375 49.417969 22.246094 49.421875 22.261719 49.421875 C 22.285156 49.421875 22.3125 49.414062 22.335938 49.398438 C 22.367188 49.375 22.386719 49.339844 22.390625 49.300781 C 22.394531 49.261719 22.738281 45.421875 23.878906 44.347656 C 24.121094 44.121094 24.386719 44.019531 24.6875 44.046875 Z M 30.722656 49.160156 C 29.792969 48.972656 27.90625 48.535156 27.886719 48.53125 C 27.816406 48.511719 27.746094 48.558594 27.730469 48.628906 C 27.710938 48.699219 27.757812 48.769531 27.828125 48.785156 C 27.84375 48.789062 29.738281 49.230469 30.671875 49.417969 C 30.679688 49.421875 30.6875 49.421875 30.699219 49.421875 C 30.757812 49.421875 30.8125 49.378906 30.824219 49.316406 C 30.839844 49.242188 30.792969 49.175781 30.722656 49.160156 Z M 27.5625 52.074219 C 27.632812 52.074219 27.691406 52.015625 27.691406 51.941406 C 27.691406 51.871094 27.632812 51.8125 27.558594 51.8125 C 27.546875 51.808594 27.527344 51.8125 27.511719 51.8125 C 25.566406 51.8125 24.347656 51.0625 24.335938 51.054688 C 24.273438 51.015625 24.191406 51.035156 24.152344 51.097656 C 24.117188 51.160156 24.132812 51.238281 24.195312 51.277344 C 24.246094 51.3125 25.484375 52.074219 27.507812 52.074219 C 27.527344 52.074219 27.542969 52.074219 27.5625 52.074219 Z M 28.074219 50.300781 C 26.589844 50.121094 24.71875 49.445312 24.703125 49.4375 C 24.632812 49.414062 24.558594 49.449219 24.535156 49.515625 C 24.507812 49.585938 24.542969 49.660156 24.613281 49.683594 C 24.632812 49.691406 26.527344 50.375 28.039062 50.5625 C 28.046875 50.5625 28.050781 50.5625 28.058594 50.5625 C 28.121094 50.5625 28.179688 50.511719 28.1875 50.445312 C 28.195312 50.375 28.144531 50.308594 28.074219 50.300781 Z M 27.667969 53.089844 C 26.890625 53.089844 24.699219 52.285156 24.675781 52.277344 C 24.609375 52.25 24.535156 52.285156 24.507812 52.355469 C 24.484375 52.421875 24.519531 52.5 24.585938 52.523438 C 24.679688 52.558594 26.84375 53.351562 27.667969 53.351562 C 27.738281 53.351562 27.796875 53.292969 27.796875 53.21875 C 27.796875 53.148438 27.738281 53.089844 27.667969 53.089844 Z M 44.460938 32.019531 L 43.957031 34.863281 L 42.023438 35.386719 C 41.699219 35.476562 41.355469 35.347656 41.167969 35.066406 L 40.878906 34.636719 C 40.839844 34.574219 40.757812 34.558594 40.699219 34.597656 C 40.640625 34.640625 40.625 34.722656 40.664062 34.78125 L 40.949219 35.210938 C 41.148438 35.507812 41.476562 35.679688 41.816406 35.679688 C 41.910156 35.679688 42 35.667969 42.09375 35.640625 L 44.105469 35.09375 C 44.152344 35.082031 44.1875 35.039062 44.199219 34.988281 L 44.71875 32.066406 C 44.730469 31.992188 44.683594 31.925781 44.613281 31.910156 C 44.542969 31.898438 44.472656 31.945312 44.460938 32.019531 Z M 48.167969 44.558594 C 48.230469 44.59375 48.3125 44.570312 48.347656 44.507812 C 48.378906 44.441406 48.359375 44.363281 48.292969 44.328125 C 47.449219 43.855469 46.261719 43.835938 45.945312 43.839844 C 45.792969 43.570312 45.761719 43.335938 45.84375 43.148438 C 46.007812 42.773438 46.59375 42.660156 46.597656 42.660156 C 46.597656 42.660156 46.601562 42.660156 46.601562 42.65625 C 46.609375 42.65625 47.40625 42.5 48.519531 43.121094 C 48.582031 43.160156 48.664062 43.136719 48.699219 43.070312 C 48.734375 43.007812 48.710938 42.929688 48.648438 42.894531 C 47.722656 42.375 47 42.359375 46.699219 42.382812 C 46.507812 37.394531 46.464844 24.808594 48.457031 24.140625 C 48.523438 24.117188 48.5625 24.042969 48.539062 23.972656 C 48.515625 23.902344 48.441406 23.867188 48.371094 23.890625 C 47.261719 24.261719 46.597656 27.527344 46.410156 33.585938 C 46.28125 37.675781 46.414062 41.71875 46.441406 42.425781 C 46.226562 42.484375 45.777344 42.652344 45.605469 43.042969 C 45.492188 43.292969 45.519531 43.585938 45.683594 43.910156 L 38.546875 46.96875 C 38.921875 42.121094 39.335938 37.003906 39.515625 35.371094 C 40.109375 30.003906 42.832031 22 43.101562 21.210938 L 43.585938 21.054688 L 44.433594 22.609375 L 51.8125 20.273438 L 50.65625 16.902344 C 50.65625 16.902344 50.136719 16.972656 49.375 17.085938 C 47.414062 17.367188 43.832031 16.78125 43.363281 17.035156 C 43.191406 17.125 41.933594 18.609375 41.933594 18.609375 C 41.933594 18.609375 41.183594 18.847656 40.84375 19.320312 C 40.503906 19.796875 40.113281 21.398438 40.113281 21.398438 L 41.023438 21.269531 L 41.304688 21.78125 C 41.304688 21.78125 33.996094 32.292969 34.257812 35.003906 C 34.519531 37.71875 35.71875 40.21875 35.71875 40.21875 L 35.964844 48.074219 L 33.394531 49.171875 C 33.328125 49.199219 33.296875 49.277344 33.324219 49.34375 C 33.347656 49.394531 33.394531 49.425781 33.445312 49.425781 C 33.460938 49.425781 33.480469 49.421875 33.496094 49.414062 L 45.898438 44.105469 C 46.082031 44.101562 47.332031 44.089844 48.167969 44.558594 Z M 50.011719 22.976562 C 49.9375 22.984375 49.890625 23.050781 49.898438 23.125 C 49.90625 23.195312 49.972656 23.246094 50.046875 23.238281 C 50.070312 23.234375 52.515625 22.917969 54.21875 24.355469 C 55.246094 25.222656 55.804688 26.546875 55.875 28.292969 C 55.878906 28.363281 55.933594 28.417969 56.003906 28.417969 C 56.007812 28.417969 56.007812 28.417969 56.011719 28.417969 C 56.082031 28.414062 56.140625 28.355469 56.136719 28.28125 C 56.0625 26.457031 55.472656 25.070312 54.386719 24.152344 C 52.59375 22.640625 50.113281 22.960938 50.011719 22.976562 Z M 56.828125 32.515625 C 56.757812 32.503906 56.691406 32.554688 56.675781 32.625 C 56.675781 32.640625 56.433594 34.054688 55.921875 34.925781 C 56.054688 32.414062 56.128906 30.539062 56.136719 30.316406 C 56.136719 30.242188 56.082031 30.183594 56.011719 30.179688 C 55.941406 30.175781 55.878906 30.234375 55.875 30.304688 C 55.867188 30.46875 55.238281 46.816406 54.078125 49.429688 C 52.933594 52.003906 35.585938 55.039062 35.410156 55.070312 C 35.339844 55.082031 35.292969 55.152344 35.304688 55.222656 C 35.316406 55.289062 35.371094 55.332031 35.433594 55.332031 C 35.441406 55.332031 35.445312 55.332031 35.453125 55.332031 C 35.53125 55.316406 35.789062 55.273438 36.1875 55.199219 L 36.242188 56.972656 L 37.78125 56.972656 C 37.78125 56.972656 37.839844 56.167969 37.9375 54.871094 C 42.859375 53.914062 53.378906 51.644531 54.316406 49.535156 C 55.085938 47.808594 55.609375 40.515625 55.894531 35.417969 C 56.609375 34.578125 56.921875 32.746094 56.9375 32.667969 C 56.945312 32.597656 56.898438 32.53125 56.828125 32.515625 Z M 44.609375 30.96875 L 41.125 30.421875 C 41.050781 30.410156 40.984375 30.460938 40.972656 30.53125 C 40.960938 30.601562 41.011719 30.671875 41.082031 30.679688 L 44.570312 31.230469 C 44.578125 31.230469 44.582031 31.234375 44.589844 31.234375 C 44.652344 31.234375 44.707031 31.1875 44.71875 31.121094 C 44.730469 31.050781 44.679688 30.980469 44.609375 30.96875 Z M 56.640625 25.070312 C 56.632812 25.054688 56.621094 25.035156 56.613281 25.019531 C 56.640625 25.078125 56.671875 25.136719 56.699219 25.195312 C 56.679688 25.152344 56.660156 25.113281 56.640625 25.070312 Z M 27.78125 11.929688 C 27.828125 12.394531 28.238281 12.769531 28.695312 12.769531 C 29.15625 12.769531 29.488281 12.394531 29.441406 11.929688 C 29.398438 11.464844 28.988281 11.089844 28.527344 11.089844 C 28.066406 11.089844 27.734375 11.464844 27.78125 11.929688 Z M 24.289062 28.664062 C 24.21875 28.664062 24.160156 28.722656 24.160156 28.796875 C 24.160156 28.867188 24.21875 28.929688 24.289062 28.929688 L 25.519531 28.929688 C 25.59375 28.929688 25.652344 28.867188 25.652344 28.796875 C 25.652344 28.722656 25.59375 28.664062 25.519531 28.664062 Z M 24.097656 26.714844 L 26.488281 26.714844 C 26.558594 26.714844 26.617188 26.65625 26.617188 26.585938 C 26.617188 26.511719 26.558594 26.453125 26.488281 26.453125 L 24.097656 26.453125 C 24.027344 26.453125 23.96875 26.511719 23.96875 26.585938 C 23.96875 26.65625 24.027344 26.714844 24.097656 26.714844 Z M 24.097656 25.636719 L 27.46875 25.636719 C 27.542969 25.636719 27.601562 25.578125 27.601562 25.507812 C 27.601562 25.433594 27.542969 25.375 27.46875 25.375 L 24.097656 25.375 C 24.027344 25.375 23.96875 25.433594 23.96875 25.507812 C 23.96875 25.578125 24.027344 25.636719 24.097656 25.636719 Z M 22.898438 15.878906 C 22.828125 15.871094 22.765625 15.925781 22.757812 16 C 22.753906 16.074219 22.808594 16.136719 22.878906 16.140625 L 24.757812 16.28125 C 24.757812 16.285156 24.761719 16.285156 24.765625 16.285156 C 24.832031 16.285156 24.890625 16.230469 24.898438 16.160156 C 24.902344 16.089844 24.847656 16.027344 24.777344 16.019531 Z M 25.378906 15.628906 C 25.449219 15.628906 25.503906 15.574219 25.511719 15.507812 C 25.515625 15.433594 25.460938 15.371094 25.390625 15.363281 L 22.828125 15.171875 C 22.757812 15.164062 22.691406 15.222656 22.6875 15.292969 C 22.683594 15.367188 22.734375 15.429688 22.808594 15.433594 L 25.371094 15.628906 C 25.375 15.628906 25.378906 15.628906 25.378906 15.628906 Z M 22.632812 13.476562 L 24.515625 13.648438 C 24.519531 13.648438 24.523438 13.648438 24.527344 13.648438 C 24.59375 13.648438 24.652344 13.597656 24.65625 13.53125 C 24.664062 13.457031 24.609375 13.394531 24.539062 13.386719 L 22.65625 13.214844 C 22.585938 13.210938 22.519531 13.261719 22.511719 13.335938 C 22.507812 13.40625 22.558594 13.472656 22.632812 13.476562 Z M 24.605469 12.964844 C 24.667969 12.964844 24.726562 12.917969 24.734375 12.851562 C 24.742188 12.777344 24.695312 12.714844 24.621094 12.703125 L 22.554688 12.425781 C 22.484375 12.417969 22.417969 12.46875 22.410156 12.539062 C 22.398438 12.613281 22.449219 12.679688 22.523438 12.6875 L 24.585938 12.964844 C 24.59375 12.964844 24.597656 12.964844 24.605469 12.964844 Z M 30.820312 23.4375 L 30.492188 20.5625 L 28.046875 20.492188 L 28.433594 23.394531 Z M 23.78125 23.304688 L 25.234375 23.332031 L 24.488281 17.023438 L 23.175781 16.90625 Z M 30.140625 17.53125 L 27.621094 17.304688 L 27.78125 18.488281 L 30.273438 18.675781 Z M 28.011719 20.226562 L 30.460938 20.296875 L 30.304688 18.945312 L 27.816406 18.757812 Z M 25.152344 20.40625 L 25.496094 23.335938 L 28.167969 23.386719 L 27.78125 20.484375 Z M 27.746094 20.21875 L 27.546875 18.734375 L 24.929688 18.539062 L 25.121094 20.144531 Z M 24.898438 18.273438 L 27.511719 18.46875 L 27.355469 17.28125 L 24.753906 17.046875 Z M 30.390625 17.394531 L 31.097656 23.558594 C 31.101562 23.597656 31.089844 23.632812 31.066406 23.660156 C 31.039062 23.691406 31.003906 23.703125 30.96875 23.703125 C 30.96875 23.703125 30.96875 23.703125 30.964844 23.703125 L 23.660156 23.566406 C 23.59375 23.5625 23.539062 23.511719 23.535156 23.445312 L 22.902344 16.773438 C 22.898438 16.734375 22.910156 16.695312 22.9375 16.667969 C 22.964844 16.640625 23.003906 16.625 23.042969 16.628906 L 30.269531 17.28125 C 30.332031 17.285156 30.382812 17.332031 30.390625 17.394531 Z M 22.523438 12.054688 L 25.503906 12.410156 C 25.511719 12.410156 25.515625 12.410156 25.519531 12.410156 C 25.585938 12.410156 25.640625 12.359375 25.648438 12.292969 C 25.660156 12.222656 25.605469 12.15625 25.535156 12.148438 L 22.554688 11.796875 C 22.484375 11.785156 22.417969 11.839844 22.410156 11.910156 C 22.402344 11.984375 22.453125 12.046875 22.523438 12.054688 Z M 27.664062 9.675781 C 27.429688 9.347656 26.886719 9.269531 26.886719 9.269531 C 26.886719 9.269531 26.621094 8.386719 25.964844 8.214844 C 25.152344 8.003906 25.179688 8.914062 25.179688 8.914062 C 25.179688 8.914062 24.28125 8.816406 24.070312 9.082031 C 23.855469 9.351562 23.828125 10.105469 23.828125 10.105469 L 28.160156 10.632812 C 28.160156 10.632812 27.886719 9.988281 27.664062 9.675781 Z M 37.035156 5.109375 C 36.742188 4.308594 36.785156 3.371094 37.601562 2.375 C 39.515625 0.03125 41.3125 2.226562 43.589844 2.105469 C 45.863281 1.984375 49.097656 2.707031 50.148438 4.363281 C 51.195312 6.023438 48.679688 12.773438 48.679688 12.773438 C 48.679688 12.773438 49.308594 14.28125 50.65625 13.976562 C 50.65625 14.128906 49.609375 15.394531 47.722656 14.792969 C 46.109375 16.386719 43.488281 15.320312 42.832031 13.933594 C 42.171875 12.546875 39.511719 8.503906 39.558594 8.757812 C 39.570312 8.832031 39.523438 8.898438 39.453125 8.910156 C 39.445312 8.914062 39.4375 8.914062 39.429688 8.914062 C 39.367188 8.914062 39.3125 8.871094 39.300781 8.804688 C 39.203125 8.269531 38.691406 8.039062 38.6875 8.039062 C 38.621094 8.007812 38.589844 7.933594 38.617188 7.863281 C 38.632812 7.832031 38.660156 7.808594 38.691406 7.796875 C 38.292969 7.398438 38.109375 6.867188 38.109375 6.867188 L 38.109375 8.160156 C 37.199219 7.460938 37.050781 5.882812 37.035156 5.109375"/><path fill="#F35F43" d="M 29.433594 17.46875 C 29.671875 17.769531 29.949219 18.046875 30.226562 18.257812 C 30.320312 18.332031 30.417969 18.394531 30.511719 18.449219 C 30.597656 18.5 30.6875 18.542969 30.769531 18.574219 C 30.769531 18.574219 30.765625 19.710938 31.164062 20.800781 C 31.332031 21.257812 31.574219 21.703125 31.917969 22.054688 L 32.246094 24.757812 L 34.257812 23.226562 C 34.257812 23.226562 33.378906 19.714844 33.082031 18.855469 C 32.789062 17.996094 31.191406 16.105469 31.191406 16.105469 L 31.339844 17.316406 C 31.1875 17.175781 30.9375 16.953125 30.648438 16.714844 C 29.953125 16.136719 29.039062 15.492188 28.820312 15.835938 C 28.644531 16.105469 28.855469 16.648438 29.222656 17.1875 C 29.289062 17.28125 29.359375 17.375 29.433594 17.46875 Z M 33.445312 49.425781 C 33.394531 49.425781 33.347656 49.394531 33.324219 49.34375 C 33.308594 49.300781 33.316406 49.253906 33.339844 49.21875 C 32.910156 48.917969 31.253906 47.765625 30.539062 47.394531 C 29.445312 46.820312 27.238281 47.15625 27.238281 47.15625 L 27.757812 48.570312 C 27.789062 48.535156 27.835938 48.519531 27.886719 48.53125 C 27.90625 48.535156 29.792969 48.972656 30.722656 49.160156 C 30.792969 49.175781 30.839844 49.242188 30.824219 49.316406 C 30.8125 49.378906 30.757812 49.421875 30.699219 49.421875 C 30.6875 49.421875 30.679688 49.421875 30.671875 49.417969 C 29.738281 49.230469 27.84375 48.789062 27.828125 48.785156 C 27.789062 48.777344 27.761719 48.753906 27.742188 48.71875 C 27.378906 48.671875 25.78125 48.472656 25.179688 48.707031 C 24.714844 48.886719 24.648438 49.238281 24.648438 49.429688 C 24.664062 49.429688 24.683594 49.429688 24.703125 49.4375 C 24.71875 49.445312 26.589844 50.121094 28.074219 50.300781 C 28.144531 50.308594 28.195312 50.375 28.1875 50.445312 C 28.179688 50.511719 28.121094 50.5625 28.058594 50.5625 C 28.050781 50.5625 28.046875 50.5625 28.039062 50.5625 C 26.527344 50.375 24.632812 49.691406 24.613281 49.683594 C 24.570312 49.667969 24.542969 49.632812 24.53125 49.59375 C 24.253906 49.675781 23.609375 49.917969 23.625 50.429688 C 23.632812 50.707031 23.972656 50.976562 24.15625 51.097656 C 24.191406 51.035156 24.273438 51.015625 24.335938 51.054688 C 24.347656 51.0625 25.566406 51.8125 27.511719 51.8125 C 27.527344 51.8125 27.546875 51.808594 27.558594 51.8125 C 27.632812 51.8125 27.691406 51.871094 27.691406 51.941406 C 27.691406 52.015625 27.632812 52.074219 27.5625 52.074219 C 27.542969 52.074219 27.527344 52.074219 27.507812 52.074219 C 25.589844 52.074219 24.378906 51.386719 24.214844 51.289062 C 24.164062 51.433594 24.101562 51.691406 24.171875 51.941406 C 24.203125 52.054688 24.367188 52.175781 24.570312 52.285156 C 24.601562 52.269531 24.640625 52.261719 24.675781 52.277344 C 24.699219 52.285156 26.890625 53.089844 27.667969 53.089844 C 27.738281 53.089844 27.796875 53.148438 27.796875 53.21875 C 27.796875 53.292969 27.738281 53.351562 27.667969 53.351562 C 27.171875 53.351562 26.1875 53.0625 25.464844 52.824219 L 25.445312 52.859375 C 25.324219 53.089844 25.445312 53.378906 25.699219 53.445312 L 28.664062 54.308594 C 29.019531 54.410156 29.378906 54.480469 29.738281 54.519531 C 30.394531 54.589844 31.0625 54.5625 31.710938 54.425781 L 34.355469 53.875 L 34.945312 53.753906 L 33.488281 49.417969 C 33.472656 49.421875 33.460938 49.425781 33.445312 49.425781 Z M 41.847656 18.78125 L 41.945312 21.578125 L 42.304688 21.460938 C 42.316406 21.394531 42.492188 20.1875 42.789062 19.246094 C 42.765625 19.261719 42.742188 19.28125 42.71875 19.300781 Z M 39.558594 8.757812 C 39.433594 8.085938 38.816406 7.808594 38.789062 7.796875 C 38.722656 7.769531 38.648438 7.796875 38.617188 7.863281 C 38.589844 7.933594 38.621094 8.007812 38.6875 8.039062 C 38.691406 8.039062 39.203125 8.269531 39.300781 8.804688 C 39.3125 8.871094 39.367188 8.914062 39.429688 8.914062 C 39.4375 8.914062 39.445312 8.914062 39.453125 8.910156 C 39.523438 8.898438 39.570312 8.832031 39.558594 8.757812 Z M 39.339844 13.828125 C 39.285156 13.78125 39.203125 13.78125 39.152344 13.835938 C 38.816406 14.195312 38.054688 14.035156 38.046875 14.035156 C 37.976562 14.019531 37.90625 14.0625 37.890625 14.136719 C 37.875 14.207031 37.921875 14.277344 37.992188 14.292969 C 38.007812 14.296875 38.195312 14.335938 38.433594 14.335938 C 38.726562 14.335938 39.101562 14.273438 39.34375 14.015625 C 39.394531 13.964844 39.390625 13.878906 39.339844 13.828125 Z M 38.433594 9.578125 C 38.445312 9.785156 38.542969 9.933594 38.65625 9.914062 C 38.765625 9.894531 38.84375 9.707031 38.832031 9.5 C 38.820312 9.292969 38.722656 9.140625 38.613281 9.164062 C 38.503906 9.183594 38.425781 9.367188 38.433594 9.578125 Z M 43.800781 18.027344 C 42.15625 18.472656 39.679688 17.625 39.679688 17.625 C 39.324219 17.507812 38.949219 17.363281 38.5625 17.1875 C 37.734375 16.800781 37.683594 14.976562 37.867188 12.933594 C 36.917969 11.875 38.109375 10.792969 38.25 9.804688 C 38.367188 8.96875 38.476562 8.207031 38.53125 7.617188 C 38.546875 7.46875 38.554688 7.332031 38.5625 7.207031 C 38.566406 7.160156 38.574219 7.113281 38.578125 7.070312 C 39.058594 7.457031 39.460938 7.679688 39.484375 7.683594 C 40.921875 7.960938 41.972656 6.988281 41.972656 6.988281 L 41.71875 7.890625 C 41.445312 8.871094 41.523438 9.917969 41.933594 10.847656 L 42.414062 10.683594 C 42.632812 10.167969 43.140625 9.804688 43.734375 9.804688 C 44.523438 9.804688 45.164062 10.449219 45.164062 11.242188 C 45.164062 12.007812 44.570312 12.632812 43.820312 12.679688 C 43.914062 12.964844 44.027344 13.253906 44.15625 13.527344 C 44.816406 14.914062 46.015625 15.152344 46.015625 15.152344 L 45.835938 14.1875 C 45.835938 14.1875 45.835938 14.1875 47.722656 14.792969 C 48 14.882812 48.257812 14.929688 48.5 14.945312 L 49.375 17.082031 C 47.714844 17.324219 44.910156 17.75 43.800781 18.027344 Z M 41.730469 18.09375 C 41.460938 18.0625 40.660156 17.949219 39.679688 17.625 C 40.664062 17.949219 41.460938 18.0625 41.730469 18.09375 Z M 41.734375 18.09375 C 41.773438 18.101562 41.796875 18.101562 41.8125 18.105469 C 41.796875 18.101562 41.773438 18.101562 41.734375 18.09375"/><path fill="#F14544" d="M 44.160156 15.929688 L 44.121094 15.617188 C 43.003906 17.761719 39.679688 17.625 39.679688 17.625 C 40.660156 17.949219 41.460938 18.0625 41.730469 18.09375 C 41.730469 18.09375 41.730469 18.09375 41.734375 18.09375 C 41.773438 18.101562 41.796875 18.101562 41.8125 18.105469 C 41.816406 18.105469 41.816406 18.105469 41.816406 18.105469 C 41.820312 18.105469 41.824219 18.105469 41.824219 18.105469 L 41.84375 18.640625 L 41.847656 18.78125 L 41.886719 19.910156 L 42.71875 19.300781 C 42.742188 19.28125 42.765625 19.261719 42.789062 19.246094 C 42.953125 18.722656 43.152344 18.285156 43.378906 18.164062 C 43.453125 18.125 43.597656 18.078125 43.800781 18.027344 C 44.121094 17.390625 44.257812 16.664062 44.160156 15.929688 Z M 32.246094 24.757812 L 31.917969 22.054688 C 31.574219 21.703125 31.332031 21.257812 31.164062 20.800781 L 32.367188 30.308594 L 23.632812 30.308594 L 21.632812 9.472656 L 23.859375 9.769531 C 23.875 9.636719 23.902344 9.484375 23.945312 9.351562 L 21.320312 8.996094 C 20.996094 8.953125 20.71875 9.226562 20.746094 9.554688 L 22.671875 31.164062 C 22.695312 31.425781 22.914062 31.628906 23.179688 31.628906 L 32.507812 31.628906 C 32.75 31.628906 32.949219 31.460938 33 31.234375 C 33.015625 31.179688 33.023438 31.117188 33.011719 31.054688 Z M 29.875 10.578125 L 30.648438 16.714844 C 30.9375 16.953125 31.1875 17.175781 31.339844 17.316406 L 31.191406 16.105469 L 30.523438 10.621094 C 30.492188 10.386719 30.3125 10.203125 30.082031 10.175781 L 27.785156 9.867188 C 27.871094 10.015625 27.957031 10.1875 28.023438 10.328125 Z M 38.25 9.804688 C 38.109375 10.792969 37.957031 11.890625 37.867188 12.933594 C 37.636719 12.820312 37.121094 12.53125 37.019531 12.175781 C 36.890625 11.714844 38.25 9.804688 38.25 9.804688"/><g fill="#FFF"><use x="3.202" y="67.48" xmlns:xlink="http://www.w3.org/1999/xlink" xlink:href="#b" xlink:type="simple" xlink:actuate="onLoad" xlink:show="embed"/></g><g fill="#FFF"><use x="8.451" y="67.48" xmlns:xlink="http://www.w3.org/1999/xlink" xlink:href="#c" xlink:type="simple" xlink:actuate="onLoad" xlink:show="embed"/></g><g fill="#FFF"><use x="11.317" y="67.48" xmlns:xlink="http://www.w3.org/1999/xlink" xlink:href="#d" xlink:type="simple" xlink:actuate="onLoad" xlink:show="embed"/></g><g fill="#FFF"><use x="14.962" y="67.48" xmlns:xlink="http://www.w3.org/1999/xlink" xlink:href="#e" xlink:type="simple" xlink:actuate="onLoad" xlink:show="embed"/></g><g fill="#FFF"><use x="16.927" y="67.48" xmlns:xlink="http://www.w3.org/1999/xlink" xlink:href="#f" xlink:type="simple" xlink:actuate="onLoad" xlink:show="embed"/></g><g fill="#FFF"><use x="19.851" y="67.48" xmlns:xlink="http://www.w3.org/1999/xlink" xlink:href="#g" xlink:type="simple" xlink:actuate="onLoad" xlink:show="embed"/></g><g fill="#FFF"><use x="24.084" y="67.48" xmlns:xlink="http://www.w3.org/1999/xlink" xlink:href="#h" xlink:type="simple" xlink:actuate="onLoad" xlink:show="embed"/></g><g fill="#FFF"><use x="27.293" y="67.48" xmlns:xlink="http://www.w3.org/1999/xlink" xlink:href="#i" xlink:type="simple" xlink:actuate="onLoad" xlink:show="embed"/></g><g fill="#FFF"><use x="29.191" y="67.48" xmlns:xlink="http://www.w3.org/1999/xlink" xlink:href="#h" xlink:type="simple" xlink:actuate="onLoad" xlink:show="embed"/></g><g fill="#FFF"><use x="32.399" y="67.48" xmlns:xlink="http://www.w3.org/1999/xlink" xlink:href="#e" xlink:type="simple" xlink:actuate="onLoad" xlink:show="embed"/></g><g fill="#FFF"><use x="34.364" y="67.48" xmlns:xlink="http://www.w3.org/1999/xlink" xlink:href="#j" xlink:type="simple" xlink:actuate="onLoad" xlink:show="embed"/></g><g fill="#FFF"><use x="38.465" y="67.48" xmlns:xlink="http://www.w3.org/1999/xlink" xlink:href="#i" xlink:type="simple" xlink:actuate="onLoad" xlink:show="embed"/></g><g fill="#FFF"><use x="40.363" y="67.48" xmlns:xlink="http://www.w3.org/1999/xlink" xlink:href="#k" xlink:type="simple" xlink:actuate="onLoad" xlink:show="embed"/></g><g fill="#FFF"><use x="43.23" y="67.48" xmlns:xlink="http://www.w3.org/1999/xlink" xlink:href="#l" xlink:type="simple" xlink:actuate="onLoad" xlink:show="embed"/></g><g fill="#FFF"><use x="46.97" y="67.48" xmlns:xlink="http://www.w3.org/1999/xlink" xlink:href="#g" xlink:type="simple" xlink:actuate="onLoad" xlink:show="embed"/></g><g fill="#FFF"><use x="51.203" y="67.48" xmlns:xlink="http://www.w3.org/1999/xlink" xlink:href="#j" xlink:type="simple" xlink:actuate="onLoad" xlink:show="embed"/></g><g fill="#FFF"><use x="55.304" y="67.48" xmlns:xlink="http://www.w3.org/1999/xlink" xlink:href="#m" xlink:type="simple" xlink:actuate="onLoad" xlink:show="embed"/></g><g fill="#FFF"><use x="58.626" y="67.48" xmlns:xlink="http://www.w3.org/1999/xlink" xlink:href="#c" xlink:type="simple" xlink:actuate="onLoad" xlink:show="embed"/></g><g fill="#FFF"><use x="61.493" y="67.48" xmlns:xlink="http://www.w3.org/1999/xlink" xlink:href="#l" xlink:type="simple" xlink:actuate="onLoad" xlink:show="embed"/></g><g fill="#FFF"><use x="65.233" y="67.48" xmlns:xlink="http://www.w3.org/1999/xlink" xlink:href="#n" xlink:type="simple" xlink:actuate="onLoad" xlink:show="embed"/></g><g fill="#FFF"><use x="68.593" y="67.48" xmlns:xlink="http://www.w3.org/1999/xlink" xlink:href="#h" xlink:type="simple" xlink:actuate="onLoad" xlink:show="embed"/></g></svg>