<svg xmlns="http://www.w3.org/2000/svg" width="75" viewBox="0 0 75 75" height="75" version="1.0"><defs><clipPath id="a"><path d="M 0.585938 9.914062 L 74.085938 9.914062 L 74.085938 61.664062 L 0.585938 61.664062 Z M 0.585938 9.914062"/></clipPath></defs><g clip-path="url(#a)"><path fill="#F00" d="M 72.484375 18.03125 C 72.269531 17.25 71.964844 16.511719 71.558594 15.8125 C 71.152344 15.113281 70.664062 14.480469 70.09375 13.90625 C 69.523438 13.335938 68.886719 12.847656 68.191406 12.441406 C 67.492188 12.039062 66.75 11.730469 65.972656 11.519531 C 60.265625 9.957031 37.292969 9.957031 37.292969 9.957031 C 37.292969 9.957031 14.316406 10.003906 8.609375 11.5625 C 7.828125 11.773438 7.089844 12.082031 6.390625 12.488281 C 5.691406 12.894531 5.054688 13.382812 4.484375 13.953125 C 3.914062 14.523438 3.425781 15.160156 3.023438 15.859375 C 2.617188 16.558594 2.308594 17.296875 2.097656 18.078125 C 0.585938 23.789062 0.585938 35.730469 0.585938 35.730469 C 0.585938 35.730469 0.585938 47.671875 2.144531 53.429688 C 2.355469 54.207031 2.664062 54.949219 3.070312 55.648438 C 3.472656 56.347656 3.960938 56.980469 4.53125 57.550781 C 5.105469 58.125 5.738281 58.613281 6.4375 59.015625 C 7.136719 59.421875 7.875 59.730469 8.65625 59.941406 C 14.363281 61.5 37.335938 61.5 37.335938 61.5 C 37.335938 61.5 60.3125 61.5 66.019531 59.941406 C 66.800781 59.730469 67.539062 59.421875 68.238281 59.019531 C 68.9375 58.613281 69.570312 58.125 70.140625 57.554688 C 70.714844 56.980469 71.203125 56.347656 71.605469 55.648438 C 72.011719 54.949219 72.320312 54.210938 72.53125 53.429688 C 74.085938 47.71875 74.085938 35.730469 74.085938 35.730469 C 74.085938 35.730469 74.042969 23.789062 72.484375 18.03125 Z M 72.484375 18.03125"/></g><path fill="#FFF" d="M 29.976562 46.773438 L 49.035156 35.730469 L 29.976562 24.6875 Z M 29.976562 46.773438"/></svg>